<svg width="16" height="16" viewBox="0 0 16 16" fill="none" xmlns="http://www.w3.org/2000/svg">
<rect width="16" height="16" rx="2" fill="#5F0080"/>
<path d="M14.9315 5.76024C14.8728 5.69294 14.7969 5.66016 14.7002 5.66016C14.6036 5.66016 14.5173 5.69294 14.4397 5.76024C14.362 5.82753 14.3154 5.90864 14.2999 6.00181C14.2844 6.09672 14.3051 6.1761 14.362 6.24167C14.419 6.30724 14.4949 6.34002 14.5915 6.34002C14.6882 6.34002 14.7762 6.30724 14.8538 6.24167C14.9332 6.1761 14.9798 6.09672 14.9953 6.00181C15.0108 5.90691 14.9884 5.82753 14.9315 5.76024Z" fill="white"/>
<path d="M14.7157 6.73012C14.6915 6.6749 14.6553 6.62831 14.4931 6.59035C14.2135 6.52478 13.7752 6.63004 13.9012 6.756C13.9564 6.80949 13.9254 6.98723 13.8926 7.12182L13.3801 8.485C13.318 8.6196 13.2024 8.83702 13.1195 8.91639C13.0367 8.99749 12.947 9.03718 12.8503 9.03718C12.7744 9.03718 12.7227 9.02337 12.695 8.99404C12.6674 8.96471 12.6588 8.91812 12.6692 8.85082C12.6778 8.79388 12.6933 8.74038 12.7158 8.69034L13.8943 5.56537L13.9754 5.34623H13.9702C13.9892 5.28066 13.9996 5.22026 13.9737 5.15987C13.9495 5.10465 13.9133 5.05806 13.7511 5.0201C13.4715 4.95453 13.0333 5.05979 13.1592 5.18575C13.2265 5.25132 13.1644 5.50843 13.1282 5.63785L12.5674 7.12009L12.5708 7.09939C12.5829 7.02174 12.5587 6.95962 12.4983 6.91303C12.4379 6.86644 12.3361 6.84228 12.1964 6.84228C11.9185 6.84228 11.6649 6.93719 11.4354 7.12527C11.2042 7.31508 11.0178 7.54458 10.8729 7.81894C10.7279 8.09158 10.6365 8.35214 10.5968 8.60061C10.5968 8.60752 10.5968 8.61442 10.595 8.62132C10.5191 8.8767 10.4829 8.90949 10.419 8.97161C10.3466 9.04408 10.2586 9.08032 10.155 9.07859C10.0791 9.07859 10.0291 9.05961 10.0049 9.02337C9.98075 8.98714 9.97213 8.93537 9.9842 8.86807C9.99283 8.81113 10.017 8.73348 10.055 8.63513C10.0929 8.53677 10.1585 8.27794 10.2033 8.17268C10.2758 8.00185 10.3328 7.8569 10.3759 7.73784C10.419 7.61878 10.4484 7.51179 10.4639 7.41344C10.495 7.2219 10.4639 7.08041 10.3776 6.9855C10.2896 6.89232 10.1585 6.84401 9.9842 6.84401C9.75816 6.84401 9.54419 6.93546 9.34575 7.11837C9.36128 7.0528 9.36646 6.98723 9.3423 6.93373C9.31814 6.87852 9.275 6.8233 9.1128 6.78534C8.83326 6.71977 8.39497 6.82502 8.52094 6.95099C8.61239 7.04072 8.46745 7.47901 8.46745 7.47901L8.03779 8.62132L8.02916 8.6265C7.96531 8.76799 7.89111 8.88188 7.80829 8.96816C7.72374 9.05443 7.63401 9.0993 7.5391 9.0993C7.39933 9.0993 7.34066 9.02683 7.3631 8.8836C7.37172 8.82666 7.38725 8.77317 7.40969 8.72313L7.91009 7.39791L7.92908 7.33406C7.99465 7.16151 7.93943 7.04072 7.81346 6.97342C7.64436 6.88369 7.35619 6.88542 7.23713 6.93546C7.2285 6.92511 7.21988 6.91648 7.20952 6.90785C7.14913 6.86126 7.04732 6.8371 6.90755 6.8371C6.62974 6.8371 6.37608 6.93201 6.14658 7.12009C5.91536 7.3099 5.729 7.5394 5.58405 7.81376C5.44946 8.06915 5.36146 8.31417 5.31832 8.54712C4.38135 8.58163 4.24675 9.579 5.14231 7.18221C5.27346 6.79914 5.47362 6.40744 5.5668 6.01229C5.77214 5.04253 4.83172 4.82684 4.12079 5.13054C3.27182 5.41525 2.50567 6.15896 2.0484 6.96307C1.76541 7.38065 1.16147 9.31154 2.26927 9.15452C2.35038 9.12346 2.53156 8.99922 2.47634 8.88878C2.40904 8.84737 2.30379 8.83529 2.25374 8.75591C1.63945 7.63603 2.99055 5.90876 4.03624 5.5671C4.17256 5.51706 4.635 5.40317 4.5539 5.69134C4.4055 6.36603 3.9189 7.76027 3.5945 8.70242C3.4599 8.97678 3.47026 9.32017 3.19244 9.49272C2.36936 10.1916 0.443643 11.5737 1.15457 12.7385C1.37371 12.9973 1.82236 13.056 2.1226 12.9317C2.96467 12.6108 3.42367 11.4581 3.74807 10.7351C3.89819 10.3969 4.02071 10.0535 4.16048 9.70497C4.23468 9.55484 4.25366 9.34778 4.38307 9.22354C4.6281 9.05443 4.98356 8.94745 5.30279 8.99404C5.32177 9.08032 5.35111 9.15452 5.39942 9.21318C5.50813 9.34433 5.6617 9.4099 5.85669 9.4099C6.02407 9.4099 6.17592 9.36676 6.31051 9.28221C6.4451 9.19765 6.57452 9.08549 6.69531 8.94918C6.68841 9.0993 6.72292 9.21491 6.79712 9.29429C6.87131 9.37366 6.98175 9.41335 7.12497 9.41335C7.31305 9.41335 7.51149 9.3495 7.71856 9.22009C7.77033 9.1873 7.81346 9.15279 7.85143 9.11828L7.75134 9.38401H8.4916L9.14386 7.62223C9.20598 7.48418 9.28018 7.37375 9.36128 7.28747C9.44411 7.20292 9.52866 7.15978 9.61839 7.15978C9.7409 7.15978 9.78922 7.24606 9.76161 7.41689C9.75126 7.48764 9.72365 7.57909 9.68223 7.69298C9.64082 7.80686 9.54937 8.0726 9.50278 8.18993C9.49242 8.21409 9.46999 8.26758 9.43893 8.35041C9.40615 8.43496 9.37509 8.52124 9.34403 8.60924C9.31297 8.69725 9.29226 8.77835 9.28018 8.84737C9.2543 9.00784 9.28191 9.14244 9.36301 9.25115C9.44411 9.35986 9.58733 9.41507 9.79612 9.41507C9.97385 9.41507 10.1568 9.35295 10.3431 9.22699C10.4328 9.16659 10.5122 9.07859 10.5899 8.96125C10.6054 9.06651 10.6416 9.15279 10.6969 9.21836C10.8056 9.3495 10.9591 9.41507 11.1541 9.41507C11.3215 9.41507 11.4751 9.37194 11.6148 9.28393C11.7529 9.19765 11.8789 9.08722 11.9893 8.95263C11.9876 9.0924 12.0238 9.20111 12.0997 9.27358C12.1757 9.34778 12.2826 9.38401 12.4241 9.38401C12.7503 9.38401 13.0333 9.24252 13.2783 8.96643C13.2783 9.0924 13.3076 9.19075 13.3697 9.26495C13.4543 9.36503 13.5785 9.41507 13.7442 9.4168C13.8908 9.4168 14.0254 9.37194 14.148 9.28393C14.2705 9.19593 14.3516 9.06651 14.3913 8.89913C14.3309 8.98024 14.2463 9.0389 14.1842 9.0389C14.1083 9.0389 14.0565 9.0251 14.0289 8.99577C14.0013 8.96643 13.9927 8.91984 14.003 8.85254C14.0116 8.7956 14.0651 8.63167 14.0876 8.58163L14.6328 7.13045L14.6397 7.1339L14.6777 7.02691C14.6984 6.97342 14.7174 6.92338 14.7277 6.87507C14.7381 6.8233 14.7381 6.77498 14.7174 6.72839L14.7157 6.73012ZM3.17519 10.0156C3.16829 10.0553 3.1424 10.1036 3.11824 10.1519C3.10444 10.1829 3.09236 10.2157 3.07856 10.2468C3.07856 10.2485 3.07856 10.252 3.07683 10.2537C3.02506 10.3883 2.95432 10.5436 2.89737 10.673C2.82145 10.8473 2.74207 11.0198 2.65752 11.1907C2.58678 11.3373 2.51085 11.484 2.4194 11.6324C2.40387 11.6583 2.38661 11.6842 2.37108 11.7118C2.34175 11.7584 2.31414 11.805 2.2848 11.8515C2.26755 11.874 2.25029 11.8981 2.23304 11.9206C2.17609 11.9999 2.11398 12.0776 2.04668 12.1466C2.0346 12.1604 2.0208 12.1725 2.00872 12.1863C2.00699 12.188 2.00354 12.1915 2.00181 12.1932C1.94832 12.2432 1.89138 12.2881 1.82926 12.3226C1.82581 12.3226 1.82408 12.3261 1.82236 12.3278H1.81891C1.81891 12.3278 1.81373 12.3313 1.812 12.333C1.71192 12.3813 1.63255 12.3968 1.57043 12.3899C1.46517 12.3813 1.40995 12.3071 1.3927 12.2053C1.36854 12.0879 1.39442 11.9344 1.45309 11.8084C1.48242 11.7394 1.51694 11.6755 1.55662 11.6255C1.5618 11.6169 1.5687 11.6065 1.57388 11.5979C1.69467 11.3995 1.84134 11.2131 2.00354 11.0319C2.22614 10.7783 2.47979 10.5367 2.7369 10.3141C2.87667 10.1847 3.0613 10.0207 3.14068 9.98278C3.14758 9.9776 3.15621 9.9707 3.16311 9.96552C3.16656 9.96898 3.16656 9.97243 3.16829 9.97588C3.18209 9.97588 3.18554 9.98968 3.17519 10.019V10.0156ZM6.71601 8.57473C6.66252 8.71278 6.58832 8.81976 6.49169 8.89913C6.39506 8.97851 6.30361 9.01647 6.21906 9.01647C6.14658 9.01647 6.08964 8.99231 6.04823 8.94572C6.00681 8.89913 5.99819 8.79215 6.0258 8.62477C6.05168 8.45739 6.16211 8.16923 6.25874 7.95008C6.35538 7.73094 6.48307 7.46865 6.61766 7.31163C6.75225 7.15633 6.88684 7.07868 7.02489 7.07868C7.09736 7.07868 7.14568 7.09939 7.17329 7.1408C7.20089 7.18221 7.21125 7.22535 7.20434 7.26849L6.71601 8.57301V8.57473ZM12.0048 8.6196C11.9531 8.75074 11.8789 8.85254 11.784 8.92674C11.689 9.00094 11.5993 9.03718 11.5165 9.03718C11.444 9.03718 11.3871 9.01302 11.3457 8.96643C11.3042 8.91984 11.2956 8.81286 11.3232 8.64548C11.3491 8.4781 11.4561 8.1744 11.5527 7.95526C11.6494 7.73611 11.7891 7.50144 11.9237 7.34614C12.0583 7.19084 12.1929 7.11319 12.331 7.11319C12.4397 7.11319 12.5018 7.17186 12.5139 7.2892L12.0048 8.62132V8.6196Z" fill="white"/>
</svg>
