<?xml version="1.0" encoding="UTF-8"?><svg id="a" xmlns="http://www.w3.org/2000/svg" viewBox="0 0 81.13 46.43"><defs><style>.b{fill:#5f0080;}</style></defs><path class="b" d="M80.74,4.5c-.34-.39-.78-.58-1.34-.58s-1.06,.19-1.51,.58c-.45,.39-.72,.86-.81,1.4-.09,.55,.03,1.01,.36,1.39,.33,.38,.77,.57,1.33,.57,.56,0,1.07-.19,1.52-.57,.46-.38,.73-.84,.82-1.39,.09-.55-.04-1.01-.37-1.4Z"/><path class="b" d="M79.49,10.12c-.14-.32-.35-.59-1.29-.81-1.62-.38-4.16,.23-3.43,.96,.32,.31,.14,1.34-.05,2.12l-2.97,7.9h0c-.36,.78-1.03,2.04-1.51,2.5-.48,.47-1,.7-1.56,.7-.44,0-.74-.08-.9-.25-.16-.17-.21-.44-.15-.83,.05-.33,.14-.64,.27-.93l6.83-18.11h0l.47-1.27h-.03c.11-.38,.17-.73,.02-1.08-.14-.32-.35-.59-1.29-.81-1.62-.38-4.16,.23-3.43,.96,.39,.38,.03,1.87-.18,2.62l-3.25,8.59,.02-.12c.07-.45-.07-.81-.42-1.08-.35-.27-.94-.41-1.75-.41-1.61,0-3.08,.55-4.41,1.64-1.34,1.1-2.42,2.43-3.26,4.02-.84,1.58-1.37,3.09-1.6,4.53,0,.04,0,.08-.01,.12-.44,1.48-.65,1.67-1.02,2.03-.42,.42-.93,.63-1.53,.62-.44,0-.73-.11-.87-.32-.14-.21-.19-.51-.12-.9,.05-.33,.19-.78,.41-1.35,.22-.57,.6-2.07,.86-2.68,.42-.99,.75-1.83,1-2.52,.25-.69,.42-1.31,.51-1.88,.18-1.11,0-1.93-.5-2.48-.51-.54-1.27-.82-2.28-.82-1.31,0-2.55,.53-3.7,1.59,.09-.38,.12-.76-.02-1.07-.14-.32-.39-.64-1.33-.86-1.62-.38-4.16,.23-3.43,.96,.53,.52-.31,3.06-.31,3.06h0l-2.49,6.62-.05,.03c-.37,.82-.8,1.48-1.28,1.98-.49,.5-1.01,.76-1.56,.76-.81,0-1.15-.42-1.02-1.25,.05-.33,.14-.64,.27-.93l2.9-7.68,.11-.37c.38-1,.06-1.7-.67-2.09-.98-.52-2.65-.51-3.34-.22-.05-.06-.1-.11-.16-.16-.35-.27-.94-.41-1.75-.41-1.61,0-3.08,.55-4.41,1.64-1.34,1.1-2.42,2.43-3.26,4.02-.78,1.48-1.29,2.9-1.54,4.25-5.43,.2-6.21,5.98-1.02-7.91,.76-2.22,1.92-4.49,2.46-6.78C27.66,.34,22.21-.91,18.09,.85c-4.92,1.65-9.36,5.96-12.01,10.62-1.64,2.42-5.14,13.61,1.28,12.7,.47-.18,1.52-.9,1.2-1.54-.39-.24-1-.31-1.29-.77C3.71,15.37,11.54,5.36,17.6,3.38c.79-.29,3.47-.95,3,.72-.86,3.91-3.68,11.99-5.56,17.45-.78,1.59-.72,3.58-2.33,4.58C7.94,30.18-3.22,38.19,.9,44.94c1.27,1.5,3.87,1.84,5.61,1.12,4.88-1.86,7.54-8.54,9.42-12.73,.87-1.96,1.58-3.95,2.39-5.97,.43-.87,.54-2.07,1.29-2.79,1.42-.98,3.48-1.6,5.33-1.33,.11,.5,.28,.93,.56,1.27,.63,.76,1.52,1.14,2.65,1.14,.97,0,1.85-.25,2.63-.74,.78-.49,1.53-1.14,2.23-1.93-.04,.87,.16,1.54,.59,2,.43,.46,1.07,.69,1.9,.69,1.09,0,2.24-.37,3.44-1.12,.3-.19,.55-.39,.77-.59l-.58,1.54h4.29l3.78-10.21c.36-.8,.79-1.44,1.26-1.94,.48-.49,.97-.74,1.49-.74,.71,0,.99,.5,.83,1.49-.06,.41-.22,.94-.46,1.6-.24,.66-.77,2.2-1.04,2.88-.06,.14-.19,.45-.37,.93-.19,.49-.37,.99-.55,1.5-.18,.51-.3,.98-.37,1.38-.15,.93,.01,1.71,.48,2.34s1.3,.95,2.51,.95c1.03,0,2.09-.36,3.17-1.09,.52-.35,.98-.86,1.43-1.54,.09,.61,.3,1.11,.62,1.49,.63,.76,1.52,1.14,2.65,1.14,.97,0,1.86-.25,2.67-.76,.8-.5,1.53-1.14,2.17-1.92-.01,.81,.2,1.44,.64,1.86,.44,.43,1.06,.64,1.88,.64,1.89,0,3.53-.82,4.95-2.42,0,.73,.17,1.3,.53,1.73,.49,.58,1.21,.87,2.17,.88,.85,0,1.63-.26,2.34-.77,.71-.51,1.18-1.26,1.41-2.23-.35,.47-.84,.81-1.2,.81-.44,0-.74-.08-.9-.25-.16-.17-.21-.44-.15-.83,.05-.33,.36-1.28,.49-1.57l3.16-8.41,.04,.02,.22-.62c.12-.31,.23-.6,.29-.88h0c.06-.3,.06-.58-.06-.85ZM12.61,29.16c-.04,.23-.19,.51-.33,.79-.08,.18-.15,.37-.23,.55,0,.01,0,.03-.01,.04-.3,.78-.71,1.68-1.04,2.43-.44,1.01-.9,2.01-1.39,3-.41,.85-.85,1.7-1.38,2.56-.09,.15-.19,.3-.28,.46-.17,.27-.33,.54-.5,.81-.1,.13-.2,.27-.3,.4-.33,.46-.69,.91-1.08,1.31-.07,.08-.15,.15-.22,.23-.01,.01-.03,.03-.04,.04-.31,.29-.64,.55-1,.75-.02,0-.03,.02-.04,.03h-.02s-.03,.02-.04,.03c-.58,.28-1.04,.37-1.4,.33-.61-.05-.93-.48-1.03-1.07-.14-.68,.01-1.57,.35-2.3,.17-.4,.37-.77,.6-1.06,.03-.05,.07-.11,.1-.16,.7-1.15,1.55-2.23,2.49-3.28,1.29-1.47,2.76-2.87,4.25-4.16,.81-.75,1.88-1.7,2.34-1.92,.04-.03,.09-.07,.13-.1,.02,.02,.02,.04,.03,.06,.08,0,.1,.08,.04,.25Zm20.52-8.35c-.31,.8-.74,1.42-1.3,1.88-.56,.46-1.09,.68-1.58,.68-.42,0-.75-.14-.99-.41-.24-.27-.29-.89-.13-1.86,.15-.97,.79-2.64,1.35-3.91,.56-1.27,1.3-2.79,2.08-3.7,.78-.9,1.56-1.35,2.36-1.35,.42,0,.7,.12,.86,.36,.16,.24,.22,.49,.18,.74l-2.83,7.56Zm30.65,.26c-.3,.76-.73,1.35-1.28,1.78-.55,.43-1.07,.64-1.55,.64-.42,0-.75-.14-.99-.41-.24-.27-.29-.89-.13-1.86,.15-.97,.77-2.73,1.33-4,.56-1.27,1.37-2.63,2.15-3.53,.78-.9,1.56-1.35,2.36-1.35,.63,0,.99,.34,1.06,1.02l-2.95,7.72Z"/></svg>