<svg width="0" height="0" fill="none" style="visibility: hidden; position: absolute;" aria-hidden="true">
    <symbol id="Answer" width="24" height="24" viewBox="0 0 24 24" fill="none" xmlns="http://www.w3.org/2000/svg">
        <g clip-path="url(#clip0_5514_4034__Answer)">
            <path d="M12 24C18.6274 24 24 18.6274 24 12C24 5.37258 18.6274 0 12 0C5.37258 0 0 5.37258 0 12C0 18.6274 5.37258 24 12 24Z" fill="#5F0080"/>
            <path d="M9.7601 15.708L10.3001 14.304H13.7561L14.3081 15.708H16.4561L13.0001 7.5H11.0681L7.6001 15.708H9.7601ZM13.0841 12.576H10.9721L12.0281 9.864L13.0841 12.576Z" fill="white"/>
        </g>
        <defs>
            <clipPath id="clip0_5514_4034__Answer">
                <rect width="24" height="24" fill="white"/>
            </clipPath>
        </defs>
    </symbol>
    <symbol id="Arrow" width="6" height="11" viewBox="0 0 6 11" fill="none" xmlns="http://www.w3.org/2000/svg">
        <g clip-path="url(#clip0_5514_3525__Arrow)">
            <path fill-rule="evenodd" clip-rule="evenodd" d="M1 11L6 5.5L1 0L0 1.1L4 5.5L0 9.9L1 11Z" fill="#5F0080"/>
        </g>
        <defs>
            <clipPath id="clip0_5514_3525__Arrow">
                <rect width="6" height="11" fill="white"/>
            </clipPath>
        </defs>
    </symbol>
    <symbol id="Arrow_slide" width="52" height="52" viewBox="0 0 52 52" fill="none" xmlns="http://www.w3.org/2000/svg">
        <path d="M26 51C12.1929 51 1 39.8071 1 26C1 12.1929 12.1929 1 26 1C39.8071 1 51 12.1929 51 26C51 39.8071 39.8071 51 26 51Z" fill="black" fill-opacity="0.2"/>
        <path d="M28.715 34.699C28.5448 34.8731 28.3169 34.9791 28.0741 34.9972C27.8312 35.0152 27.5901 34.944 27.396 34.797L27.301 34.715L19.301 26.898C19.1289 26.7297 19.0231 26.505 19.0033 26.2651C18.9835 26.0252 19.0508 25.7862 19.193 25.592L19.273 25.496L26.996 17.314C27.1706 17.1289 27.4091 17.0173 27.663 17.0018C27.917 16.9864 28.1672 17.0684 28.3629 17.231C28.5585 17.3936 28.6848 17.6247 28.7161 17.8772C28.7473 18.1297 28.6811 18.3846 28.531 18.59L28.451 18.686L21.402 26.155L28.699 33.285C28.8732 33.4552 28.9792 33.6831 28.9972 33.926C29.0153 34.1688 28.9441 34.4099 28.797 34.604L28.715 34.699Z" fill="white"/>
    </symbol>
    <symbol id="Bell" width="32" height="32" viewBox="0 0 32 32" fill="none" xmlns="http://www.w3.org/2000/svg">
        <path d="M12.666 23C12.666 23.884 13.0172 24.7317 13.6422 25.3568C14.2673 25.9818 15.115 26.333 15.999 26.333C16.883 26.333 17.7307 25.9818 18.3558 25.3568C18.9809 24.7317 19.332 23.884 19.332 23" stroke="currentColor" stroke-width="1.6"/>
        <path fill-rule="evenodd" clip-rule="evenodd" d="M25.998 22.738H6L6.013 22.708C6.089 22.573 6.484 22.004 7.199 20.999L7.949 19.949V13.314C7.949 8.829 11.387 5.174 15.69 5.006L16 5C20.446 5 24.05 8.722 24.05 13.314V19.948L25.757 22.359C25.93 22.612 26.011 22.739 25.999 22.739L25.998 22.738Z" stroke="currentColor" stroke-width="1.6" stroke-linecap="round" stroke-linejoin="round"/>
    </symbol>
    <symbol id="Cancel" width="30" height="30" viewBox="0 0 30 30" fill="none" xmlns="http://www.w3.org/2000/svg">
        <path fill-rule="evenodd" clip-rule="evenodd" d="M21 9.762L20.238 9L15 14.238L9.762 9L9 9.762L14.238 15L9 20.238L9.762 21L15 15.762L20.238 21L21 20.238L15.762 15L21 9.762Z" fill="#CCCCCC"/>
    </symbol>
    <symbol id="Cart" width="45" height="45" viewBox="0 0 45 45" fill="none" xmlns="http://www.w3.org/2000/svg">
        <g clip-path="url(#clip0_5514_3110__Cart)">
            <path opacity="0.5" d="M22.5 45C34.9264 45 45 34.9264 45 22.5C45 10.0736 34.9264 0 22.5 0C10.0736 0 0 10.0736 0 22.5C0 34.9264 10.0736 45 22.5 45Z" fill="#2A0038"/>
            <path fill-rule="evenodd" clip-rule="evenodd" d="M31.4897 17.29L29.3197 26.52H16.8997L14.7397 17.29H31.4897Z" stroke="white" stroke-width="1.4" stroke-linecap="square" stroke-linejoin="round"/>
            <path d="M27.3797 32.94C28.3186 32.94 29.0797 32.1789 29.0797 31.24C29.0797 30.3012 28.3186 29.54 27.3797 29.54C26.4408 29.54 25.6797 30.3012 25.6797 31.24C25.6797 32.1789 26.4408 32.94 27.3797 32.94Z" stroke="white" stroke-width="1.2" stroke-linecap="square" stroke-linejoin="round"/>
            <path d="M18.8499 32.94C19.7888 32.94 20.5499 32.1789 20.5499 31.24C20.5499 30.3012 19.7888 29.54 18.8499 29.54C17.911 29.54 17.1499 30.3012 17.1499 31.24C17.1499 32.1789 17.911 32.94 18.8499 32.94Z" stroke="white" stroke-width="1.2" stroke-linecap="square" stroke-linejoin="round"/>
            <path d="M11.0298 14.38H14.0498L15.4598 20.36" stroke="white" stroke-width="1.4" stroke-linecap="square" stroke-linejoin="round"/>
        </g>
        <defs>
            <clipPath id="clip0_5514_3110__Cart">
                <rect width="45" height="45" fill="white"/>
            </clipPath>
        </defs>
    </symbol>
    <symbol id="Cart_header" width="36" height="36" viewBox="0 0 36 36" fill="none" xmlns="http://www.w3.org/2000/svg">
        <g clip-path="url(#clip0_5514_3186__Cart_header)">
            <path fill-rule="evenodd" clip-rule="evenodd" d="M30.8442 10.207L28.1242 21.777H12.5342L9.82422 10.207H30.8442Z" stroke="#333333" stroke-width="1.7" stroke-linecap="square" stroke-linejoin="round"/>
            <path d="M25.6839 29.467C26.8658 29.467 27.8239 28.5089 27.8239 27.327C27.8239 26.1451 26.8658 25.187 25.6839 25.187C24.5021 25.187 23.5439 26.1451 23.5439 27.327C23.5439 28.5089 24.5021 29.467 25.6839 29.467Z" stroke="#333333" stroke-width="1.7" stroke-linecap="square" stroke-linejoin="round"/>
            <path d="M14.974 29.467C16.1559 29.467 17.114 28.5089 17.114 27.327C17.114 26.1451 16.1559 25.187 14.974 25.187C13.7921 25.187 12.834 26.1451 12.834 27.327C12.834 28.5089 13.7921 29.467 14.974 29.467Z" stroke="#333333" stroke-width="1.7" stroke-linecap="square" stroke-linejoin="round"/>
            <path d="M5.16406 6.547H8.96406L10.7241 14.047" stroke="#333333" stroke-width="1.7" stroke-linecap="square" stroke-linejoin="round"/>
        </g>
        <defs>
            <clipPath id="clip0_5514_3186__Cart_header">
                <rect width="36" height="36" fill="white"/>
            </clipPath>
        </defs>
    </symbol>
    <symbol id="Committee" width="40" height="40" viewBox="0 0 40 40" fill="none" xmlns="http://www.w3.org/2000/svg">
        <g id="Frame__Committee" clip-path="url(#clip0_46_1056__Committee)">
            <g id="Page-1__Committee">
                <g id="-__Committee">
                    <g id="ic/01_check__Committee">
                        <path id="Oval__Committee" d="M20 40C31.0457 40 40 31.0457 40 20C40 8.9543 31.0457 0 20 0C8.9543 0 0 8.9543 0 20C0 31.0457 8.9543 40 20 40Z" fill="#5F0080"/>
                        <path id="Rectangle__Committee" d="M27.8002 9.6001H12.2002C11.6479 9.6001 11.2002 10.0478 11.2002 10.6001V29.4001C11.2002 29.9524 11.6479 30.4001 12.2002 30.4001H27.8002C28.3525 30.4001 28.8002 29.9524 28.8002 29.4001V10.6001C28.8002 10.0478 28.3525 9.6001 27.8002 9.6001Z" stroke="white"/>
                        <g id="Group-2__Committee">
                            <path id="Path-2__Committee" d="M14.4004 14.5308L15.6305 16.0001L17.6004 13.6001" stroke="white" stroke-linecap="round" stroke-linejoin="round"/>
                            <path id="Line__Committee" d="M20 14.8H25.6" stroke="white" stroke-linecap="round"/>
                        </g>
                        <g id="Group__Committee">
                            <path id="Path-2_2__Committee" d="M14.4004 19.7307L15.6305 21.2L17.6004 18.8" stroke="white" stroke-linecap="round" stroke-linejoin="round"/>
                            <path id="Line_2__Committee" d="M20 20H25.6" stroke="white" stroke-linecap="round"/>
                        </g>
                        <g id="Group-4__Committee">
                            <path id="Path-2_3__Committee" d="M14.4004 24.9307L15.6305 26.4L17.6004 24" stroke="white" stroke-linecap="round" stroke-linejoin="round"/>
                            <path id="Line_3__Committee" d="M20 25.2H25.6" stroke="white" stroke-linecap="round"/>
                        </g>
                    </g>
                </g>
            </g>
        </g>
        <defs>
            <clipPath id="clip0_46_1056__Committee">
                <rect width="40" height="40" fill="white"/>
            </clipPath>
        </defs>
    </symbol>
    <symbol id="Delivery" width="40" height="40" viewBox="0 0 40 40" fill="none" xmlns="http://www.w3.org/2000/svg">
        <g id="Frame__Delivery" clip-path="url(#clip0_46_1215__Delivery)">
            <g id="Page-1__Delivery">
                <g id="-__Delivery">
                    <g id="ic/03_cold__Delivery">
                        <path id="Oval__Delivery" d="M20 40C31.0457 40 40 31.0457 40 20C40 8.9543 31.0457 0 20 0C8.9543 0 0 8.9543 0 20C0 31.0457 8.9543 40 20 40Z" fill="#5F0080"/>
                        <path id="Rectangle__Delivery" fill-rule="evenodd" clip-rule="evenodd" d="M8.0002 12H24.0002C24.442 12 24.8002 12.3582 24.8002 12.8V25.6H8.0002C7.55837 25.6 7.2002 25.2418 7.2002 24.8V12.8C7.2002 12.3582 7.55837 12 8.0002 12Z" stroke="white" stroke-linejoin="round"/>
                        <path id="Rectangle_2__Delivery" fill-rule="evenodd" clip-rule="evenodd" d="M24.7998 18.3999H34.3998V24.7999C34.3998 25.2417 34.0416 25.5999 33.5998 25.5999H24.7998V18.3999Z" stroke="white" stroke-linejoin="round"/>
                        <path id="Rectangle_3__Delivery" fill-rule="evenodd" clip-rule="evenodd" d="M24.7998 15.2H31.4025C31.6425 15.2 31.8697 15.3077 32.0217 15.4934L34.3998 18.4H24.7998V15.2Z" stroke="white" stroke-linejoin="round"/>
                        <path id="Oval_2__Delivery" d="M11.9996 28.8C13.3251 28.8 14.3996 27.7255 14.3996 26.4C14.3996 25.0745 13.3251 24 11.9996 24C10.6741 24 9.59961 25.0745 9.59961 26.4C9.59961 27.7255 10.6741 28.8 11.9996 28.8Z" fill="#5F0080" stroke="white"/>
                        <path id="Oval_3__Delivery" d="M29.6002 28.8C30.9257 28.8 32.0002 27.7255 32.0002 26.4C32.0002 25.0745 30.9257 24 29.6002 24C28.2747 24 27.2002 25.0745 27.2002 26.4C27.2002 27.7255 28.2747 28.8 29.6002 28.8Z" fill="#5F0080" stroke="white"/>
                    </g>
                </g>
            </g>
        </g>
        <defs>
            <clipPath id="clip0_46_1215__Delivery">
                <rect width="40" height="40" fill="white"/>
            </clipPath>
        </defs>
    </symbol>
    <symbol id="Different" width="40" height="40" viewBox="0 0 40 40" fill="none" xmlns="http://www.w3.org/2000/svg">
        <g id="Frame__Different" clip-path="url(#clip0_46_1203__Different)">
            <g id="Page-1__Different">
                <g id="-__Different">
                    <g id="ic/02_only__Different">
                        <g id="ic/kurlyonly__Different">
                            <path id="Oval__Different" d="M20 40C31.0457 40 40 31.0457 40 20C40 8.9543 31.0457 0 20 0C8.9543 0 0 8.9543 0 20C0 31.0457 8.9543 40 20 40Z" fill="#5F0080"/>
                        </g>
                        <path id="Rectangle__Different" d="M29.3996 11.2H10.5996C10.0473 11.2 9.59961 11.6477 9.59961 12.2V13.4C9.59961 13.9522 10.0473 14.4 10.5996 14.4H29.3996C29.9519 14.4 30.3996 13.9522 30.3996 13.4V12.2C30.3996 11.6477 29.9519 11.2 29.3996 11.2Z" stroke="white" stroke-linejoin="round"/>
                        <path id="Rectangle_2__Different" fill-rule="evenodd" clip-rule="evenodd" d="M10.4004 14.3999H29.6004V27.9999C29.6004 28.4417 29.2422 28.7999 28.8004 28.7999H11.2004C10.7586 28.7999 10.4004 28.4417 10.4004 27.9999V14.3999Z" stroke="white" stroke-linejoin="round"/>
                        <g id="Group-6__Different">
                            <path id="Path-4__Different" d="M18 18.3999V24.3999" stroke="white" stroke-linecap="round"/>
                            <path id="Path-4_2__Different" d="M19.2998 21.0398L22.2998 24.2398" stroke="white" stroke-linecap="round"/>
                            <path id="Path-4_3__Different" d="M22 18.6399L18 21.7512" stroke="white" stroke-linecap="round"/>
                        </g>
                    </g>
                </g>
            </g>
        </g>
        <defs>
            <clipPath id="clip0_46_1203__Different">
                <rect width="40" height="40" fill="white"/>
            </clipPath>
        </defs>
    </symbol>
    <symbol id="Down" width="18" height="18" viewBox="0 0 18 18" fill="none" xmlns="http://www.w3.org/2000/svg">
        <path d="M13 7L9 11L5 7" stroke="#999999" stroke-width="1.2"/>
    </symbol>
    <symbol id="Enviroment" width="41" height="40" viewBox="0 0 41 40" fill="none" xmlns="http://www.w3.org/2000/svg">
        <g id="Frame__Enviroment" clip-path="url(#clip0_46_1249__Enviroment)">
            <g id="Page-1__Enviroment">
                <g id="-__Enviroment">
                    <g id="ic/05_eco__Enviroment">
                        <path id="Oval__Enviroment" d="M20.5 40C31.5457 40 40.5 31.0457 40.5 20C40.5 8.9543 31.5457 0 20.5 0C9.4543 0 0.5 8.9543 0.5 20C0.5 31.0457 9.4543 40 20.5 40Z" fill="#5F0080"/>
                        <path id="Oval_2__Enviroment" d="M20.4996 22.4001C21.8251 22.4001 22.8996 21.3256 22.8996 20.0001C22.8996 18.6746 21.8251 17.6001 20.4996 17.6001C19.1741 17.6001 18.0996 18.6746 18.0996 20.0001C18.0996 21.3256 19.1741 22.4001 20.4996 22.4001Z" stroke="white"/>
                        <g id="Group-13__Enviroment">
                            <path id="Stroke-1__Enviroment" d="M14.167 16.4951L18.463 9.0551C19.583 7.1151 21.4158 7.1151 22.535 9.0551L25.5206 14.2255" stroke="white" stroke-linecap="round" stroke-linejoin="round"/>
                            <path id="Stroke-3__Enviroment" d="M25.6014 11.1284V12.746V14.3636L24.2006 13.5548L22.7998 12.746" stroke="white" stroke-linecap="round" stroke-linejoin="round"/>
                            <path id="Stroke-5__Enviroment" d="M20.0053 28.3185H11.4141C9.17413 28.3185 8.25733 26.7313 9.37733 24.7913L12.3629 19.6208" stroke="white" stroke-linecap="round" stroke-linejoin="round"/>
                            <path id="Stroke-7__Enviroment" d="M9.64062 21.1L11.0414 20.2912L12.4422 19.4824V21.1V22.7176" stroke="white" stroke-linecap="round" stroke-linejoin="round"/>
                            <path id="Stroke-9__Enviroment" d="M27.3263 17.3533L31.6223 24.7941C32.7423 26.7341 31.8255 28.3205 29.5855 28.3205H23.6143" stroke="white" stroke-linecap="round" stroke-linejoin="round"/>
                            <path id="Stroke-11__Enviroment" d="M26.2567 29.9388L24.8559 29.13L23.4551 28.3212L24.8559 27.5124L26.2567 26.7036" stroke="white" stroke-linecap="round" stroke-linejoin="round"/>
                        </g>
                    </g>
                </g>
            </g>
        </g>
        <defs>
            <clipPath id="clip0_46_1249__Enviroment">
                <rect width="40" height="40" fill="white" transform="translate(0.5)"/>
            </clipPath>
        </defs>
    </symbol>
    <symbol id="Frozen" width="30" height="30" viewBox="0 0 30 30" fill="none" xmlns="http://www.w3.org/2000/svg">
        <g clip-path="url(#clip0_5514_4117__Frozen)">
            <path d="M15.044 4C15.2254 3.99977 15.4008 4.06529 15.5376 4.18444C15.6744 4.30359 15.7633 4.46828 15.788 4.648L15.794 4.75V7.439L17.514 5.719C17.6412 5.59187 17.8098 5.51466 17.9891 5.50145C18.1685 5.48823 18.3466 5.53989 18.491 5.647L18.575 5.72C18.7019 5.84711 18.7789 6.01553 18.7921 6.19464C18.8053 6.37374 18.7538 6.55165 18.647 6.696L18.575 6.78L15.795 9.56L15.794 13.95L19.596 11.756L20.614 7.958C20.6625 7.77457 20.7787 7.61633 20.9392 7.51515C21.0997 7.41398 21.2926 7.3774 21.479 7.41278C21.6654 7.44816 21.8314 7.55287 21.9437 7.70581C22.056 7.85875 22.1061 8.04856 22.084 8.237L22.064 8.346L21.434 10.696L23.763 9.35C23.9277 9.25429 24.1227 9.22487 24.3084 9.2677C24.494 9.31054 24.6564 9.42242 24.7626 9.58063C24.8687 9.73884 24.9107 9.93152 24.8799 10.1195C24.8492 10.3076 24.748 10.4768 24.597 10.593L24.513 10.65L22.185 11.994L24.533 12.624C24.7063 12.6707 24.8571 12.778 24.9581 12.9265C25.059 13.0749 25.1033 13.2547 25.083 13.433L25.063 13.543C25.0163 13.7165 24.9088 13.8675 24.7601 13.9684C24.6115 14.0693 24.4315 14.1136 24.253 14.093L24.145 14.073L20.347 13.055L16.544 15.249L20.346 17.445L24.145 16.427C24.3283 16.3767 24.5239 16.3979 24.6922 16.4863C24.8605 16.5747 24.9889 16.7237 25.0515 16.9032C25.1142 17.0827 25.1063 17.2793 25.0295 17.4532C24.9528 17.6271 24.8128 17.7653 24.638 17.84L24.533 17.876L22.183 18.506L24.513 19.85C24.6783 19.9448 24.8013 20.0989 24.8571 20.281C24.9129 20.4632 24.8973 20.6598 24.8134 20.8309C24.7295 21.0019 24.5837 21.1347 24.4055 21.2021C24.2273 21.2696 24.0301 21.2667 23.854 21.194L23.763 21.15L21.435 19.806L22.063 22.154C22.1096 22.3275 22.0923 22.512 22.0143 22.6739C21.9363 22.8358 21.8028 22.9643 21.638 23.036L21.533 23.073C21.3593 23.1195 21.1747 23.1021 21.0129 23.0239C20.851 22.9457 20.7226 22.8119 20.651 22.647L20.614 22.542L19.597 18.745L15.794 16.548V20.939L18.574 23.719C18.7085 23.8527 18.7875 24.0323 18.7948 24.2218C18.8022 24.4113 18.7376 24.5966 18.6139 24.7403C18.4902 24.8841 18.3166 24.9756 18.1281 24.9965C17.9396 25.0174 17.7502 24.9661 17.598 24.853L17.514 24.78L15.794 23.06V25.75C15.7939 25.94 15.7218 26.1229 15.592 26.2618C15.4623 26.4006 15.2847 26.4851 15.0951 26.498C14.9055 26.511 14.7181 26.4515 14.5707 26.3316C14.4233 26.2117 14.3269 26.0402 14.301 25.852L14.294 25.75V23.062L12.574 24.78C12.447 24.907 12.2787 24.9842 12.0996 24.9976C11.9204 25.011 11.7425 24.9597 11.598 24.853L11.514 24.78C11.387 24.653 11.3098 24.4847 11.2964 24.3055C11.283 24.1264 11.3343 23.9485 11.441 23.804L11.514 23.72L14.294 20.94V16.549L10.493 18.744L9.475 22.542C9.42653 22.7254 9.31033 22.8837 9.14983 22.9848C8.98933 23.086 8.79645 23.1226 8.61005 23.0872C8.42365 23.0518 8.25758 22.9471 8.14531 22.7942C8.03303 22.6412 7.9829 22.4514 8.005 22.263L8.025 22.154L8.655 19.804L6.326 21.15C6.16123 21.2472 5.96554 21.2777 5.77898 21.2354C5.59242 21.193 5.42909 21.081 5.32242 20.9222C5.21574 20.7634 5.17378 20.5698 5.20512 20.3811C5.23646 20.1924 5.33873 20.0228 5.491 19.907L5.576 19.85L7.904 18.506L5.556 17.876C5.3825 17.8295 5.23146 17.7222 5.13034 17.5738C5.02922 17.4253 4.98475 17.2455 5.005 17.067L5.025 16.957C5.07174 16.7835 5.17922 16.6325 5.32788 16.5316C5.47654 16.4307 5.65649 16.3864 5.835 16.407L5.945 16.427L9.742 17.445L13.544 15.25L9.743 13.055L5.944 14.073C5.76068 14.1233 5.5651 14.1021 5.39682 14.0137C5.22853 13.9253 5.10009 13.7763 5.03747 13.5968C4.97485 13.4173 4.98272 13.2207 5.05948 13.0468C5.13625 12.8729 5.27619 12.7347 5.451 12.66L5.556 12.624L7.906 11.994L5.576 10.65C5.41071 10.5552 5.28767 10.4011 5.23187 10.219C5.17608 10.0368 5.1917 9.8402 5.27558 9.66913C5.35946 9.49806 5.50531 9.36533 5.6835 9.29789C5.86169 9.23044 6.05887 9.23334 6.235 9.306L6.326 9.35L8.654 10.694L8.026 8.346C7.97944 8.17245 7.99673 7.98796 8.07473 7.82609C8.15273 7.66422 8.28626 7.53573 8.451 7.464L8.556 7.427C8.72967 7.38051 8.91426 7.39794 9.07615 7.47614C9.23804 7.55433 9.36645 7.68807 9.438 7.853L9.475 7.958L10.492 11.755L14.294 13.951V9.561L11.514 6.781C11.3781 6.64756 11.298 6.4674 11.2901 6.2771C11.2822 6.0868 11.3469 5.9006 11.4713 5.7563C11.5956 5.612 11.7701 5.5204 11.9595 5.50011C12.1489 5.47981 12.3389 5.53233 12.491 5.647L12.575 5.72L14.295 7.439V4.75C14.295 4.55109 14.374 4.36032 14.5147 4.21967C14.6553 4.07902 14.8461 4 15.045 4H15.044Z" fill="#6FAFF3"/>
        </g>
        <defs>
            <clipPath id="clip0_5514_4117__Frozen">
                <rect width="30" height="30" fill="white"/>
            </clipPath>
        </defs>
    </symbol>
    <symbol id="Hamburger" width="16" height="14" viewBox="0 0 16 14" fill="none" xmlns="http://www.w3.org/2000/svg">
        <g clip-path="url(#clip0_5514_3072__Hamburger)">
            <path fill-rule="evenodd" clip-rule="evenodd" d="M0 0H16V1.7H0V0ZM0 6.15H16V7.85H0V6.15ZM0 12.3H16V14H0V12.3Z" fill="#5F0080"/>
        </g>
        <defs>
            <clipPath id="clip0_5514_3072__Hamburger">
                <rect width="16" height="14" fill="white"/>
            </clipPath>
        </defs>
    </symbol>
    <symbol id="Heart" width="36" height="36" viewBox="0 0 36 36" fill="none" xmlns="http://www.w3.org/2000/svg">
        <path fill-rule="evenodd" clip-rule="evenodd" d="M28.9269 8.89295C28.3269 8.29261 27.6146 7.81636 26.8305 7.49144C26.0465 7.16651 25.2061 6.99927 24.3574 6.99927C23.5086 6.99927 22.6682 7.16651 21.8842 7.49144C21.1001 7.81636 20.3878 8.29261 19.7879 8.89295L17.9589 10.7209L16.1319 8.89295C14.9201 7.68091 13.2765 6.99989 11.5626 6.9997C9.84867 6.99951 8.2049 7.68017 6.99286 8.89195C5.78082 10.1037 5.0998 11.7473 5.09961 13.4612C5.09942 15.1751 5.78008 16.8189 6.99186 18.0309L8.81986 19.8599L17.2519 28.2939C17.4394 28.4814 17.6937 28.5867 17.9589 28.5867C18.224 28.5867 18.4783 28.4814 18.6659 28.2939L27.0989 19.8599L28.9269 18.0319C29.5271 17.432 30.0032 16.7198 30.328 15.9358C30.6528 15.1518 30.82 14.3115 30.82 13.4629C30.82 12.6144 30.6528 11.7741 30.328 10.9901C30.0032 10.2061 29.5271 9.49386 28.9269 8.89395V8.89295Z" stroke="currentColor" stroke-width="1.7" stroke-linecap="round"/>
    </symbol>
    <symbol id="Left" width="18" height="18" viewBox="0 0 18 18" fill="none" xmlns="http://www.w3.org/2000/svg">
        <path d="M11 13L7 9L11 5" stroke="currentColor" stroke-width="1.2"/>
    </symbol>
    <symbol id="Location" width="36" height="36" viewBox="0 0 36 36" fill="none" xmlns="http://www.w3.org/2000/svg">
        <g clip-path="url(#clip0_5514_3184__Location)">
            <path fill-rule="evenodd" clip-rule="evenodd" d="M18.0062 30C18.0062 30 8.7002 22.544 8.7002 15.306C8.7002 12.8379 9.68065 10.4709 11.4259 8.72566C13.1711 6.98045 15.5381 6 18.0062 6C20.4743 6 22.8413 6.98045 24.5865 8.72566C26.3317 10.4709 27.3122 12.8379 27.3122 15.306C27.3122 22.544 18.0062 30 18.0062 30Z" stroke="#333333" stroke-width="1.7" stroke-linecap="round" stroke-linejoin="round"/>
            <path d="M17.9124 17.907C19.45 17.907 20.6964 16.6606 20.6964 15.123C20.6964 13.5854 19.45 12.339 17.9124 12.339C16.3749 12.339 15.1284 13.5854 15.1284 15.123C15.1284 16.6606 16.3749 17.907 17.9124 17.907Z" stroke="#333333" stroke-width="1.7" stroke-linecap="square" stroke-linejoin="round"/>
        </g>
        <defs>
            <clipPath id="clip0_5514_3184__Location">
                <rect width="36" height="36" fill="white"/>
            </clipPath>
        </defs>
    </symbol>
    <symbol id="Lock" width="12" height="14" viewBox="0 0 12 14" fill="none" xmlns="http://www.w3.org/2000/svg">
        <g clip-path="url(#clip0_5514_4040__Lock)">
            <path fill-rule="evenodd" clip-rule="evenodd" d="M11.043 12.575C11.0425 12.6432 11.0151 12.7084 10.9668 12.7565C10.9185 12.8046 10.8532 12.8317 10.785 12.832H1.214C1.14583 12.8317 1.08051 12.8046 1.03221 12.7565C0.983908 12.7084 0.956526 12.6432 0.956 12.575V5.42C0.956 5.278 1.073 5.162 1.214 5.162H10.784C10.928 5.162 11.044 5.278 11.044 5.42V12.575H11.043ZM3.685 3.237C3.68579 2.63238 3.9264 2.05276 4.35403 1.62532C4.78165 1.19788 5.36138 0.957529 5.966 0.957C6.5707 0.957265 7.15058 1.19753 7.57826 1.62503C8.00595 2.05253 8.24647 2.6323 8.247 3.237V4.205H3.685V3.237ZM10.785 4.205H9.205V3.237C9.20394 2.3783 8.86215 1.55512 8.25467 0.948206C7.6472 0.341294 6.8237 0.000264295 5.965 0C5.10708 0.00132358 4.28472 0.342852 3.67826 0.949678C3.07181 1.5565 2.73079 2.37908 2.73 3.237V4.205H1.214C0.544 4.205 0 4.75 0 5.42V12.575C0 13.244 0.545 13.789 1.214 13.789H10.784C11.455 13.789 12 13.244 12 12.575V5.42C12 4.75 11.455 4.205 10.785 4.205Z" fill="#B5B5B5"/>
            <path fill-rule="evenodd" clip-rule="evenodd" d="M5 8.19995C5 8.54295 5.184 8.83195 5.448 9.01195V10.342H6.551V9.01195C6.68673 8.92384 6.79868 8.80368 6.87698 8.66207C6.95529 8.52046 6.99754 8.36175 7 8.19995C7 7.93473 6.89464 7.68038 6.70711 7.49284C6.51957 7.30531 6.26522 7.19995 6 7.19995C5.73478 7.19995 5.48043 7.30531 5.29289 7.49284C5.10536 7.68038 5 7.93473 5 8.19995Z" fill="#B5B5B5"/>
        </g>
        <defs>
            <clipPath id="clip0_5514_4040__Lock">
                <rect width="12" height="14" fill="white"/>
            </clipPath>
        </defs>
    </symbol>
    <symbol id="logo" width="82" height="47" viewBox="0 0 82 47" fill="none" xmlns="http://www.w3.org/2000/svg">
        <path d="M80.7402 4.49992C80.4002 4.10992 79.9602 3.91992 79.4002 3.91992C78.8402 3.91992 78.3402 4.10992 77.8902 4.49992C77.4402 4.88992 77.1702 5.35992 77.0802 5.89992C76.9902 6.44992 77.1102 6.90992 77.4402 7.28992C77.7702 7.66992 78.2102 7.85992 78.7702 7.85992C79.3302 7.85992 79.8402 7.66992 80.2902 7.28992C80.7502 6.90992 81.0202 6.44992 81.1102 5.89992C81.2002 5.34992 81.0702 4.88992 80.7402 4.49992Z" fill="#5F0080"/>
        <path d="M79.4902 10.12C79.3502 9.79999 79.1402 9.52999 78.2002 9.30999C76.5802 8.92999 74.0402 9.53999 74.7702 10.27C75.0902 10.58 74.9102 11.61 74.7202 12.39L71.7502 20.29C71.3902 21.07 70.7202 22.33 70.2402 22.79C69.7602 23.26 69.2402 23.49 68.6802 23.49C68.2402 23.49 67.9402 23.41 67.7802 23.24C67.6202 23.07 67.5702 22.8 67.6302 22.41C67.6802 22.08 67.7702 21.77 67.9002 21.48L74.7302 3.36999L75.2002 2.09999H75.1702C75.2802 1.71999 75.3402 1.36999 75.1902 1.01999C75.0502 0.699992 74.8402 0.429992 73.9002 0.209992C72.2802 -0.170008 69.7402 0.439992 70.4702 1.16999C70.8602 1.54999 70.5002 3.03999 70.2902 3.78999L67.0402 12.38L67.0602 12.26C67.1302 11.81 66.9902 11.45 66.6402 11.18C66.2902 10.91 65.7002 10.77 64.8902 10.77C63.2802 10.77 61.8102 11.32 60.4802 12.41C59.1402 13.51 58.0602 14.84 57.2202 16.43C56.3802 18.01 55.8502 19.52 55.6202 20.96C55.6202 21 55.6202 21.04 55.6102 21.08C55.1702 22.56 54.9602 22.75 54.5902 23.11C54.1702 23.53 53.6602 23.74 53.0602 23.73C52.6202 23.73 52.3302 23.62 52.1902 23.41C52.0502 23.2 52.0002 22.9 52.0702 22.51C52.1202 22.18 52.2602 21.73 52.4802 21.16C52.7002 20.59 53.0802 19.09 53.3402 18.48C53.7602 17.49 54.0902 16.65 54.3402 15.96C54.5902 15.27 54.7602 14.65 54.8502 14.08C55.0302 12.97 54.8502 12.15 54.3502 11.6C53.8402 11.06 53.0802 10.78 52.0702 10.78C50.7602 10.78 49.5202 11.31 48.3702 12.37C48.4602 11.99 48.4902 11.61 48.3502 11.3C48.2102 10.98 47.9602 10.66 47.0202 10.44C45.4002 10.06 42.8602 10.67 43.5902 11.4C44.1202 11.92 43.2802 14.46 43.2802 14.46L40.7902 21.08L40.7402 21.11C40.3702 21.93 39.9402 22.59 39.4602 23.09C38.9702 23.59 38.4502 23.85 37.9002 23.85C37.0902 23.85 36.7502 23.43 36.8802 22.6C36.9302 22.27 37.0202 21.96 37.1502 21.67L40.0502 13.99L40.1602 13.62C40.5402 12.62 40.2202 11.92 39.4902 11.53C38.5102 11.01 36.8402 11.02 36.1502 11.31C36.1002 11.25 36.0502 11.2 35.9902 11.15C35.6402 10.88 35.0502 10.74 34.2402 10.74C32.6302 10.74 31.1602 11.29 29.8302 12.38C28.4902 13.48 27.4102 14.81 26.5702 16.4C25.7902 17.88 25.2802 19.3 25.0302 20.65C19.6002 20.85 18.8202 26.63 24.0102 12.74C24.7702 10.52 25.9302 8.24999 26.4702 5.95999C27.6602 0.339992 22.2102 -0.910008 18.0902 0.849992C13.1702 2.49999 8.73017 6.80999 6.08017 11.47C4.44017 13.89 0.940166 25.08 7.36017 24.17C7.83017 23.99 8.88017 23.27 8.56017 22.63C8.17017 22.39 7.56017 22.32 7.27017 21.86C3.71017 15.37 11.5402 5.35999 17.6002 3.37999C18.3902 3.08999 21.0702 2.42999 20.6002 4.09999C19.7402 8.00999 16.9202 16.09 15.0402 21.55C14.2602 23.14 14.3202 25.13 12.7102 26.13C7.94017 30.18 -3.21983 38.19 0.900165 44.94C2.17017 46.44 4.77017 46.78 6.51017 46.06C11.3902 44.2 14.0502 37.52 15.9302 33.33C16.8002 31.37 17.5102 29.38 18.3202 27.36C18.7502 26.49 18.8602 25.29 19.6102 24.57C21.0302 23.59 23.0902 22.97 24.9402 23.24C25.0502 23.74 25.2202 24.17 25.5002 24.51C26.1302 25.27 27.0202 25.65 28.1502 25.65C29.1202 25.65 30.0002 25.4 30.7802 24.91C31.5602 24.42 32.3102 23.77 33.0102 22.98C32.9702 23.85 33.1702 24.52 33.6002 24.98C34.0302 25.44 34.6702 25.67 35.5002 25.67C36.5902 25.67 37.7402 25.3 38.9402 24.55C39.2402 24.36 39.4902 24.16 39.7102 23.96L39.1302 25.5H43.4202L47.2002 15.29C47.5602 14.49 47.9902 13.85 48.4602 13.35C48.9402 12.86 49.4302 12.61 49.9502 12.61C50.6602 12.61 50.9402 13.11 50.7802 14.1C50.7202 14.51 50.5602 15.04 50.3202 15.7C50.0802 16.36 49.5502 17.9 49.2802 18.58C49.2202 18.72 49.0902 19.03 48.9102 19.51C48.7202 20 48.5402 20.5 48.3602 21.01C48.1802 21.52 48.0602 21.99 47.9902 22.39C47.8402 23.32 48.0002 24.1 48.4702 24.73C48.9402 25.36 49.7702 25.68 50.9802 25.68C52.0102 25.68 53.0702 25.32 54.1502 24.59C54.6702 24.24 55.1302 23.73 55.5802 23.05C55.6702 23.66 55.8802 24.16 56.2002 24.54C56.8302 25.3 57.7202 25.68 58.8502 25.68C59.8202 25.68 60.7102 25.43 61.5202 24.92C62.3202 24.42 63.0502 23.78 63.6902 23C63.6802 23.81 63.8902 24.44 64.3302 24.86C64.7702 25.29 65.3902 25.5 66.2102 25.5C68.1002 25.5 69.7402 24.68 71.1602 23.08C71.1602 23.81 71.3302 24.38 71.6902 24.81C72.1802 25.39 72.9002 25.68 73.8602 25.69C74.7102 25.69 75.4902 25.43 76.2002 24.92C76.9102 24.41 77.3802 23.66 77.6102 22.69C77.2602 23.16 76.7702 23.5 76.4102 23.5C75.9702 23.5 75.6702 23.42 75.5102 23.25C75.3502 23.08 75.3002 22.81 75.3602 22.42C75.4102 22.09 75.7202 21.14 75.8502 20.85L79.0102 12.44L79.0502 12.46L79.2702 11.84C79.3902 11.53 79.5002 11.24 79.5602 10.96C79.6202 10.66 79.6202 10.38 79.5002 10.11L79.4902 10.12ZM12.6102 29.16C12.5702 29.39 12.4202 29.67 12.2802 29.95C12.2002 30.13 12.1302 30.32 12.0502 30.5C12.0502 30.51 12.0502 30.53 12.0402 30.54C11.7402 31.32 11.3302 32.22 11.0002 32.97C10.5602 33.98 10.1002 34.98 9.61016 35.97C9.20016 36.82 8.76016 37.67 8.23016 38.53C8.14016 38.68 8.04016 38.83 7.95017 38.99C7.78017 39.26 7.62017 39.53 7.45017 39.8C7.35017 39.93 7.25017 40.07 7.15017 40.2C6.82017 40.66 6.46017 41.11 6.07017 41.51C6.00017 41.59 5.92017 41.66 5.85017 41.74C5.84017 41.75 5.82017 41.77 5.81017 41.78C5.50017 42.07 5.17017 42.33 4.81017 42.53C4.79017 42.53 4.78017 42.55 4.77017 42.56H4.75017C4.75017 42.56 4.72017 42.58 4.71017 42.59C4.13017 42.87 3.67017 42.96 3.31017 42.92C2.70017 42.87 2.38017 42.44 2.28017 41.85C2.14017 41.17 2.29017 40.28 2.63017 39.55C2.80017 39.15 3.00017 38.78 3.23017 38.49C3.26017 38.44 3.30017 38.38 3.33017 38.33C4.03017 37.18 4.88017 36.1 5.82017 35.05C7.11017 33.58 8.58016 32.18 10.0702 30.89C10.8802 30.14 11.9502 29.19 12.4102 28.97C12.4502 28.94 12.5002 28.9 12.5402 28.87C12.5602 28.89 12.5602 28.91 12.5702 28.93C12.6502 28.93 12.6702 29.01 12.6102 29.18V29.16ZM33.1302 20.81C32.8202 21.61 32.3902 22.23 31.8302 22.69C31.2702 23.15 30.7402 23.37 30.2502 23.37C29.8302 23.37 29.5002 23.23 29.2602 22.96C29.0202 22.69 28.9702 22.07 29.1302 21.1C29.2802 20.13 29.9202 18.46 30.4802 17.19C31.0402 15.92 31.7802 14.4 32.5602 13.49C33.3402 12.59 34.1202 12.14 34.9202 12.14C35.3402 12.14 35.6202 12.26 35.7802 12.5C35.9402 12.74 36.0002 12.99 35.9602 13.24L33.1302 20.8V20.81ZM63.7802 21.07C63.4802 21.83 63.0502 22.42 62.5002 22.85C61.9502 23.28 61.4302 23.49 60.9502 23.49C60.5302 23.49 60.2002 23.35 59.9602 23.08C59.7202 22.81 59.6702 22.19 59.8302 21.22C59.9802 20.25 60.6002 18.49 61.1602 17.22C61.7202 15.95 62.5302 14.59 63.3102 13.69C64.0902 12.79 64.8702 12.34 65.6702 12.34C66.3002 12.34 66.6602 12.68 66.7302 13.36L63.7802 21.08V21.07Z" fill="#5F0080"/>
    </symbol>
    <symbol id="Normal" width="30" height="30" viewBox="0 0 30 30" fill="none" xmlns="http://www.w3.org/2000/svg">
        <g clip-path="url(#clip0_5514_4127__Normal)">
            <path d="M15 21C18.3137 21 21 18.3137 21 15C21 11.6863 18.3137 9 15 9C11.6863 9 9 11.6863 9 15C9 18.3137 11.6863 21 15 21Z" stroke="#FF9B5C" stroke-width="1.5"/>
            <path d="M15 4V6M22.778 7.222L21.364 8.636M26 15H24M22.778 22.778L21.364 21.364M15 26V24M7.222 22.778L8.636 21.364M4 15H6M7.222 7.222L8.636 8.636" stroke="#FF9B5C" stroke-width="1.5" stroke-linecap="round"/>
        </g>
        <defs>
            <clipPath id="clip0_5514_4127__Normal">
                <rect width="30" height="30" fill="white"/>
            </clipPath>
        </defs>
    </symbol>
    <symbol id="Notice" width="48" height="48" viewBox="0 0 48 48" fill="none" xmlns="http://www.w3.org/2000/svg">
        <g clip-path="url(#clip0_5514_4063__Notice)">
            <path d="M24 47C36.7025 47 47 36.7025 47 24C47 11.2975 36.7025 1 24 1C11.2975 1 1 11.2975 1 24C1 36.7025 11.2975 47 24 47Z" stroke="currentColor" stroke-width="2"/>
            <path fill-rule="evenodd" clip-rule="evenodd" d="M24 13C25.1046 13 26 13.8954 26 15V26C26 27.1046 25.1046 28 24 28C22.8954 28 22 27.1046 22 26V15C22 13.8954 22.8954 13 24 13ZM24 31C25.1046 31 26 31.8954 26 33C26 34.1046 25.1046 35 24 35C22.8954 35 22 34.1046 22 33C22 31.8954 22.8954 31 24 31Z" fill="#E2E2E2"/>
        </g>
        <defs>
            <clipPath id="clip0_5514_4063__Notice">
                <rect width="48" height="48" fill="white"/>
            </clipPath>
        </defs>
    </symbol>
    <symbol id="Price" width="41" height="40" viewBox="0 0 41 40" fill="none" xmlns="http://www.w3.org/2000/svg">
        <g id="Frame__Price" clip-path="url(#clip0_46_1225__Price)">
            <g id="Page-1__Price">
                <g id="-__Price">
                    <g id="ic/04_price__Price">
                        <path id="Oval__Price" d="M20.5 40C31.5457 40 40.5 31.0457 40.5 20C40.5 8.9543 31.5457 0 20.5 0C9.4543 0 0.5 8.9543 0.5 20C0.5 31.0457 9.4543 40 20.5 40Z" fill="#5F0080"/>
                        <path id="Oval_2__Price" d="M19.6998 28.8C25.4436 28.8 30.0998 24.1438 30.0998 18.4C30.0998 12.6562 25.4436 8 19.6998 8C13.956 8 9.2998 12.6562 9.2998 18.4C9.2998 24.1438 13.956 28.8 19.6998 28.8Z" fill="#5F0080" stroke="white"/>
                        <g id="Group-5__Price">
                            <path id="Path-3__Price" d="M14.8994 15.2L17.2994 22.4L19.6994 15.2L22.0994 22.4L24.4994 15.2" stroke="white" stroke-linecap="round" stroke-linejoin="round"/>
                            <path id="Rectangle__Price" d="M15.1998 17.5999H13.7998C13.5237 17.5999 13.2998 17.8237 13.2998 18.0999C13.2998 18.376 13.5237 18.5999 13.7998 18.5999H15.1998C15.4759 18.5999 15.6998 18.376 15.6998 18.0999C15.6998 17.8237 15.4759 17.5999 15.1998 17.5999Z" fill="white"/>
                            <path id="Rectangle_2__Price" d="M25.6002 17.5999H24.2002C23.9241 17.5999 23.7002 17.8237 23.7002 18.0999C23.7002 18.376 23.9241 18.5999 24.2002 18.5999H25.6002C25.8763 18.5999 26.1002 18.376 26.1002 18.0999C26.1002 17.8237 25.8763 17.5999 25.6002 17.5999Z" fill="white"/>
                        </g>
                        <path id="Rectangle_3__Price" d="M26.9971 25.3657L31.6254 29.9941C31.881 30.2497 31.9616 30.5835 31.8054 30.7397L31.2397 31.3054C31.0835 31.4616 30.7497 31.381 30.494 31.1254L25.8657 26.4971" stroke="white" stroke-linejoin="round"/>
                    </g>
                </g>
            </g>
        </g>
        <defs>
            <clipPath id="clip0_46_1225__Price">
                <rect width="40" height="40" fill="white" transform="translate(0.5)"/>
            </clipPath>
        </defs>
    </symbol>
    <symbol id="Question" width="24" height="24" viewBox="0 0 24 24" fill="none" xmlns="http://www.w3.org/2000/svg">
        <g clip-path="url(#clip0_5514_4033__Question)">
            <path d="M12 24C18.6274 24 24 18.6274 24 12C24 5.37258 18.6274 0 12 0C5.37258 0 0 5.37258 0 12C0 18.6274 5.37258 24 12 24Z" fill="#A864D8"/>
            <path fill-rule="evenodd" clip-rule="evenodd" d="M11.946 7.5C14.402 7.5 16.392 9.49 16.392 11.946C16.392 12.853 16.121 13.696 15.655 14.399L16.5 15.242L15.242 16.5L14.399 15.655C13.696 16.121 12.853 16.392 11.946 16.392C9.491 16.392 7.5 14.402 7.5 11.946C7.5 9.491 9.49 7.5 11.946 7.5ZM11.946 9.278C10.473 9.278 9.278 10.473 9.278 11.946C9.278 13.419 10.473 14.614 11.946 14.614C12.358 14.614 12.748 14.52 13.096 14.354L12.727 13.984L13.985 12.727L14.354 13.096C14.52 12.748 14.614 12.358 14.614 11.946C14.614 10.473 13.419 9.278 11.946 9.278Z" fill="white"/>
        </g>
        <defs>
            <clipPath id="clip0_5514_4033__Question">
                <rect width="24" height="24" fill="white"/>
            </clipPath>
        </defs>
    </symbol>
    <symbol id="Refrigerated" width="30" height="30" viewBox="0 0 30 30" fill="none" xmlns="http://www.w3.org/2000/svg">
        <g clip-path="url(#clip0_5514_4121__Refrigerated)">
            <path fill-rule="evenodd" clip-rule="evenodd" d="M14.627 25.255C16.6496 25.2547 18.5893 24.4511 20.0195 23.0208C21.4496 21.5904 22.253 19.6506 22.253 17.628C22.253 14.82 19.711 10.444 14.627 4.5C9.542 10.444 7 14.82 7 17.628C7 19.6508 7.80356 21.5908 9.2339 23.0211C10.6642 24.4514 12.6042 25.255 14.627 25.255V25.255Z" stroke="#5EC49E" stroke-width="1.5" stroke-linejoin="round"/>
            <path d="M14.627 20.66C15.1277 20.66 15.6235 20.5614 16.0861 20.3698C16.5487 20.1782 16.9691 19.8973 17.3232 19.5432C17.6772 19.1892 17.9581 18.7688 18.1497 18.3062C18.3413 17.8436 18.44 17.3478 18.44 16.847" stroke="#5EC49E" stroke-width="1.5" stroke-linecap="round"/>
        </g>
        <defs>
            <clipPath id="clip0_5514_4121__Refrigerated">
                <rect width="30" height="30" fill="white"/>
            </clipPath>
        </defs>
    </symbol>
    <symbol id="Right" width="18" height="18" viewBox="0 0 18 18" fill="none" xmlns="http://www.w3.org/2000/svg">
        <path d="M7 5L11 9L7 13" stroke="currentColor" stroke-width="1.2"/>
    </symbol>
    <symbol id="Search" width="36" height="36" viewBox="0 0 36 36" fill="none" xmlns="http://www.w3.org/2000/svg">
        <g clip-path="url(#clip0_5514_3183__Search)">
            <path d="M26.0811 26.081L21.9611 21.961M16.4671 23.334C17.3689 23.334 18.2618 23.1564 19.095 22.8113C19.9281 22.4662 20.6851 21.9603 21.3228 21.3227C21.9605 20.685 22.4663 19.928 22.8114 19.0949C23.1565 18.2617 23.3341 17.3688 23.3341 16.467C23.3341 15.5652 23.1565 14.6722 22.8114 13.8391C22.4663 13.0059 21.9605 12.2489 21.3228 11.6113C20.6851 10.9736 19.9281 10.4678 19.095 10.1227C18.2618 9.77759 17.3689 9.59998 16.4671 9.59998C14.6459 9.59998 12.8992 10.3235 11.6114 11.6113C10.3236 12.8991 9.6001 14.6457 9.6001 16.467C9.6001 18.2882 10.3236 20.0349 11.6114 21.3227C12.8992 22.6105 14.6459 23.334 16.4671 23.334V23.334Z" stroke="#5F0080" stroke-width="1.7" stroke-linecap="round"/>
        </g>
        <defs>
            <clipPath id="clip0_5514_3183__Search">
                <rect width="36" height="36" fill="white"/>
            </clipPath>
        </defs>
    </symbol>
    <symbol id="Time" width="36" height="36" viewBox="0 0 36 36" fill="none" xmlns="http://www.w3.org/2000/svg">
        <path d="M32 18C32 25.732 25.732 32 18 32C10.268 32 4 25.732 4 18C4 10.268 10.268 4 18 4C25.732 4 32 10.268 32 18Z" fill="#BD76FF"/>
        <path d="M18 12.0439V18.0439" stroke="white" stroke-width="2" stroke-linecap="round" stroke-linejoin="round"/>
        <path d="M13.6568 22.2802L17.9609 18.1" stroke="white" stroke-width="2" stroke-linecap="round" stroke-linejoin="round"/>
    </symbol>
    <symbol id="Up" width="18" height="18" viewBox="0 0 18 18" fill="none" xmlns="http://www.w3.org/2000/svg">
        <path d="M5 11L9 7L13 11" stroke="#999999" stroke-width="1.2"/>
    </symbol>
</svg>