<svg width="0" height="0" fill="none" style="visibility: hidden; position: absolute;" aria-hidden="true">
    <symbol id="Answer" width="24" height="24" viewBox="0 0 24 24" fill="none" xmlns="http://www.w3.org/2000/svg">
        <g clip-path="url(#clip0_5514_4034__Answer)">
            <path d="M12 24C18.6274 24 24 18.6274 24 12C24 5.37258 18.6274 0 12 0C5.37258 0 0 5.37258 0 12C0 18.6274 5.37258 24 12 24Z" fill="#5F0080"/>
            <path d="M9.7601 15.708L10.3001 14.304H13.7561L14.3081 15.708H16.4561L13.0001 7.5H11.0681L7.6001 15.708H9.7601ZM13.0841 12.576H10.9721L12.0281 9.864L13.0841 12.576Z" fill="white"/>
        </g>
        <defs>
            <clipPath id="clip0_5514_4034__Answer">
                <rect width="24" height="24" fill="white"/>
            </clipPath>
        </defs>
    </symbol>
    <symbol id="Arrow-1" width="6" height="11" viewBox="0 0 6 11" fill="none" xmlns="http://www.w3.org/2000/svg">
        <g clip-path="url(#clip0_5514_3525__Arrow-1)">
            <path fill-rule="evenodd" clip-rule="evenodd" d="M1 11L6 5.5L1 0L0 1.1L4 5.5L0 9.9L1 11Z" fill="#5F0080"/>
        </g>
        <defs>
            <clipPath id="clip0_5514_3525__Arrow-1">
                <rect width="6" height="11" fill="white"/>
            </clipPath>
        </defs>
    </symbol>
    <symbol id="Arrow" width="52" height="52" viewBox="0 0 52 52" fill="none" xmlns="http://www.w3.org/2000/svg">
        <path d="M26 51C12.1929 51 1 39.8071 1 26C1 12.1929 12.1929 1 26 1C39.8071 1 51 12.1929 51 26C51 39.8071 39.8071 51 26 51Z" fill="black" fill-opacity="0.2"/>
        <path d="M28.715 34.699C28.5448 34.8731 28.3169 34.9791 28.0741 34.9972C27.8312 35.0152 27.5901 34.944 27.396 34.797L27.301 34.715L19.301 26.898C19.1289 26.7297 19.0231 26.505 19.0033 26.2651C18.9835 26.0252 19.0508 25.7862 19.193 25.592L19.273 25.496L26.996 17.314C27.1706 17.1289 27.4091 17.0173 27.663 17.0018C27.917 16.9864 28.1672 17.0684 28.3629 17.231C28.5585 17.3936 28.6848 17.6247 28.7161 17.8772C28.7473 18.1297 28.6811 18.3846 28.531 18.59L28.451 18.686L21.402 26.155L28.699 33.285C28.8732 33.4552 28.9792 33.6831 28.9972 33.926C29.0153 34.1688 28.9441 34.4099 28.797 34.604L28.715 34.699Z" fill="white"/>
    </symbol>
    <symbol id="Beauty" xmlns="http://www.w3.org/2000/svg" width="80.000000pt" height="80.000000pt" viewBox="0 0 80.000000 80.000000" preserveAspectRatio="xMidYMid meet">
        <g transform="translate(0.000000,80.000000) scale(0.100000,-0.100000)" fill="#000000" stroke="none">
            <path d="M63 644 c-3 -9 6 -41 20 -70 26 -53 27 -60 27 -240 0 -109 4 -193 10 -205 14 -26 66 -26 80 0 6 12 10 97 10 206 0 109 4 194 10 206 11 20 -3 28 -15 9 -3 -5 -24 -10 -45 -10 -36 0 -41 4 -60 40 -27 53 -26 70 5 70 17 0 25 -6 25 -17 1 -17 1 -17 14 0 16 21 26 22 26 2 0 -8 5 -15 10 -15 6 0 10 6 10 14 0 8 6 17 13 19 6 3 -21 6 -61 6 -58 1 -74 -2 -79 -15z m127 -154 c0 -27 -3 -30 -30 -30 -27 0 -30 3 -30 30 0 27 3 30 30 30 27 0 30 -3 30 -30z m-2 -197 l-3 -158 -25 0 -25 0 -3 158 -3 157 31 0 31 0 -3 -157z"/>
            <path d="M242 618 l3 -43 70 -6 c39 -3 65 -6 58 -7 -7 -1 -28 -16 -48 -34 -105 -91 -109 -255 -8 -350 97 -92 232 -90 328 7 102 101 102 229 -1 332 l-52 52 62 3 61 3 3 43 3 42 -241 0 -241 0 3 -42z m458 2 l0 -30 -220 0 -220 0 0 30 0 30 220 0 220 0 0 -30z m-100 -84 c63 -41 94 -97 98 -175 4 -80 -22 -139 -84 -186 -38 -29 -44 -31 -131 -30 -81 1 -96 5 -131 28 -58 38 -96 119 -90 192 7 78 48 141 118 178 48 25 63 28 118 24 45 -3 74 -12 102 -31z"/>
            <path d="M415 506 c-45 -19 -92 -78 -100 -124 -17 -105 64 -202 169 -202 83 0 166 85 166 170 0 116 -129 202 -235 156z m135 -24 c103 -51 108 -201 8 -262 -63 -38 -156 -19 -199 41 -33 46 -34 130 -2 175 43 61 125 80 193 46z"/>
            <path d="M411 433 c-17 -16 -33 -40 -37 -55 -9 -42 9 -33 28 12 13 31 23 42 47 46 34 7 42 24 11 24 -11 0 -33 -12 -49 -27z"/>
        </g>
    </symbol>
    <symbol id="Bell" width="32" height="32" viewBox="0 0 32 32" fill="none" xmlns="http://www.w3.org/2000/svg">
        <path d="M12.666 23C12.666 23.884 13.0172 24.7317 13.6422 25.3568C14.2673 25.9818 15.115 26.333 15.999 26.333C16.883 26.333 17.7307 25.9818 18.3558 25.3568C18.9809 24.7317 19.332 23.884 19.332 23" stroke="currentColor" stroke-width="1.6"/>
        <path fill-rule="evenodd" clip-rule="evenodd" d="M25.998 22.738H6L6.013 22.708C6.089 22.573 6.484 22.004 7.199 20.999L7.949 19.949V13.314C7.949 8.829 11.387 5.174 15.69 5.006L16 5C20.446 5 24.05 8.722 24.05 13.314V19.948L25.757 22.359C25.93 22.612 26.011 22.739 25.999 22.739L25.998 22.738Z" stroke="currentColor" stroke-width="1.6" stroke-linecap="round" stroke-linejoin="round"/>
    </symbol>
    <symbol id="Body" xmlns="http://www.w3.org/2000/svg" width="80.000000pt" height="80.000000pt" viewBox="0 0 80.000000 80.000000" preserveAspectRatio="xMidYMid meet">
        <g transform="translate(0.000000,80.000000) scale(0.100000,-0.100000)" fill="#000000" stroke="none">
            <path d="M217 724 c-11 -11 -8 -64 3 -64 6 0 10 -9 10 -20 0 -11 -7 -20 -15 -20 -11 0 -15 -11 -15 -43 0 -36 -5 -47 -30 -65 -56 -42 -64 -71 -68 -250 -3 -118 -1 -166 8 -177 16 -20 289 -22 308 -3 16 16 16 287 1 343 -7 24 -27 55 -50 77 -33 31 -39 44 -39 78 0 29 -4 40 -15 40 -8 0 -15 9 -15 19 0 16 8 20 38 23 34 3 37 6 37 33 l0 30 -75 3 c-42 1 -79 0 -83 -4z m143 -29 c0 -12 -14 -15 -70 -15 -56 0 -70 3 -70 15 0 12 14 15 70 15 56 0 70 -3 70 -15z m-80 -55 c0 -11 -7 -20 -15 -20 -8 0 -15 9 -15 20 0 11 7 20 15 20 8 0 15 -9 15 -20z m38 -66 c-3 -24 -7 -27 -51 -28 -45 -1 -47 0 -47 27 0 26 2 27 51 27 49 0 50 -1 47 -26z m22 -71 c32 -18 70 -80 70 -112 0 -20 -4 -21 -145 -21 -160 0 -158 -1 -131 63 23 55 69 87 128 87 29 0 62 -7 78 -17z m70 -243 l0 -90 -145 0 -145 0 0 90 0 90 145 0 145 0 0 -90z m0 -140 l0 -30 -145 0 -145 0 0 30 0 30 145 0 145 0 0 -30z"/>
            <path d="M497 723 c-11 -10 -8 -81 3 -88 6 -3 10 1 10 9 0 13 14 16 81 16 l81 0 -6 -42 c-12 -88 -17 -223 -8 -208 11 19 36 296 27 310 -7 11 -178 14 -188 3z m173 -28 c0 -12 -16 -15 -80 -15 -64 0 -80 3 -80 15 0 12 16 15 80 15 64 0 80 -3 80 -15z"/>
            <path d="M471 591 c-10 -7 -12 -23 -7 -67 11 -96 18 -124 28 -124 5 0 7 8 4 18 -3 9 -8 50 -12 90 -6 61 -4 72 9 72 11 0 17 -17 22 -72 10 -94 23 -131 24 -65 1 43 3 47 26 47 27 0 31 17 19 79 -6 29 -9 31 -53 31 -25 0 -52 -4 -60 -9z m99 -47 c0 -19 -4 -34 -10 -34 -5 0 -13 -1 -17 -2 -4 -2 -10 14 -14 34 -4 29 -2 38 10 41 25 6 31 -2 31 -39z"/>
            <path d="M465 233 c4 -76 12 -144 17 -151 8 -9 37 -12 102 -10 l91 3 7 95 c4 52 9 119 12 148 l5 52 -121 0 -121 0 8 -137z m211 80 c-3 -21 -8 -80 -12 -130 l-6 -93 -83 0 -83 0 -6 103 c-4 56 -9 114 -12 130 l-6 27 107 0 107 0 -6 -37z"/>
        </g>
    </symbol>
    <symbol id="Cancel" width="30" height="30" viewBox="0 0 30 30" fill="none" xmlns="http://www.w3.org/2000/svg">
        <path fill-rule="evenodd" clip-rule="evenodd" d="M21 9.762L20.238 9L15 14.238L9.762 9L9 9.762L14.238 15L9 20.238L9.762 21L15 15.762L20.238 21L21 20.238L15.762 15L21 9.762Z" fill="#CCCCCC"/>
    </symbol>
    <symbol id="Cart-1" width="36" height="36" viewBox="0 0 36 36" fill="none" xmlns="http://www.w3.org/2000/svg">
        <g clip-path="url(#clip0_5514_3186__Cart-1)">
            <path fill-rule="evenodd" clip-rule="evenodd" d="M30.8442 10.207L28.1242 21.777H12.5342L9.82422 10.207H30.8442Z" stroke="#333333" stroke-width="1.7" stroke-linecap="square" stroke-linejoin="round"/>
            <path d="M25.6839 29.467C26.8658 29.467 27.8239 28.5089 27.8239 27.327C27.8239 26.1451 26.8658 25.187 25.6839 25.187C24.5021 25.187 23.5439 26.1451 23.5439 27.327C23.5439 28.5089 24.5021 29.467 25.6839 29.467Z" stroke="#333333" stroke-width="1.7" stroke-linecap="square" stroke-linejoin="round"/>
            <path d="M14.974 29.467C16.1559 29.467 17.114 28.5089 17.114 27.327C17.114 26.1451 16.1559 25.187 14.974 25.187C13.7921 25.187 12.834 26.1451 12.834 27.327C12.834 28.5089 13.7921 29.467 14.974 29.467Z" stroke="#333333" stroke-width="1.7" stroke-linecap="square" stroke-linejoin="round"/>
            <path d="M5.16406 6.547H8.96406L10.7241 14.047" stroke="#333333" stroke-width="1.7" stroke-linecap="square" stroke-linejoin="round"/>
        </g>
        <defs>
            <clipPath id="clip0_5514_3186__Cart-1">
                <rect width="36" height="36" fill="white"/>
            </clipPath>
        </defs>
    </symbol>
    <symbol id="Cart" width="45" height="45" viewBox="0 0 45 45" fill="none" xmlns="http://www.w3.org/2000/svg">
        <g clip-path="url(#clip0_5514_3110__Cart)">
            <path opacity="0.5" d="M22.5 45C34.9264 45 45 34.9264 45 22.5C45 10.0736 34.9264 0 22.5 0C10.0736 0 0 10.0736 0 22.5C0 34.9264 10.0736 45 22.5 45Z" fill="#2A0038"/>
            <path fill-rule="evenodd" clip-rule="evenodd" d="M31.4897 17.29L29.3197 26.52H16.8997L14.7397 17.29H31.4897Z" stroke="white" stroke-width="1.4" stroke-linecap="square" stroke-linejoin="round"/>
            <path d="M27.3797 32.94C28.3186 32.94 29.0797 32.1789 29.0797 31.24C29.0797 30.3012 28.3186 29.54 27.3797 29.54C26.4408 29.54 25.6797 30.3012 25.6797 31.24C25.6797 32.1789 26.4408 32.94 27.3797 32.94Z" stroke="white" stroke-width="1.2" stroke-linecap="square" stroke-linejoin="round"/>
            <path d="M18.8499 32.94C19.7888 32.94 20.5499 32.1789 20.5499 31.24C20.5499 30.3012 19.7888 29.54 18.8499 29.54C17.911 29.54 17.1499 30.3012 17.1499 31.24C17.1499 32.1789 17.911 32.94 18.8499 32.94Z" stroke="white" stroke-width="1.2" stroke-linecap="square" stroke-linejoin="round"/>
            <path d="M11.0298 14.38H14.0498L15.4598 20.36" stroke="white" stroke-width="1.4" stroke-linecap="square" stroke-linejoin="round"/>
        </g>
        <defs>
            <clipPath id="clip0_5514_3110__Cart">
                <rect width="45" height="45" fill="white"/>
            </clipPath>
        </defs>
    </symbol>
    <symbol id="Convenient" xmlns="http://www.w3.org/2000/svg" width="80.000000pt" height="80.000000pt" viewBox="0 0 80.000000 80.000000" preserveAspectRatio="xMidYMid meet">
        <g transform="translate(0.000000,80.000000) scale(0.100000,-0.100000)" fill="#000000" stroke="none">
            <path d="M242 659 c-14 -5 -25 -20 -28 -39 -7 -31 -10 -33 -60 -30 -18 1 -38 -6 -48 -15 -20 -20 -21 -68 -2 -85 19 -15 9 -40 -15 -40 -15 0 -19 -7 -19 -38 0 -177 184 -309 390 -280 149 20 269 138 274 268 1 42 -1 45 -27 48 -26 3 -26 4 -12 25 17 24 20 103 5 112 -6 4 -22 -1 -36 -10 -24 -16 -26 -15 -51 9 -32 32 -67 33 -97 2 -13 -13 -37 -26 -53 -29 -15 -4 -38 -9 -50 -13 -19 -5 -22 -2 -25 28 -2 26 -10 37 -35 49 -18 9 -38 21 -45 26 -22 17 -42 21 -66 12z m55 -29 c10 -11 25 -20 35 -20 23 0 50 -29 43 -48 -3 -8 -1 -20 5 -26 10 -13 2 -86 -9 -86 -8 0 -33 63 -42 105 -6 28 -7 29 -14 8 -10 -30 -18 -29 -54 8 -35 35 -39 53 -13 68 24 15 30 14 49 -9z m294 -50 c26 -14 24 -34 -6 -54 -23 -15 -25 -15 -50 8 -24 22 -24 25 -10 40 19 19 38 20 66 6z m-331 -36 c5 -13 16 -24 25 -24 19 0 55 -36 55 -55 0 -11 -11 -15 -39 -15 -44 0 -71 26 -71 67 0 13 -4 23 -10 23 -5 0 -10 -11 -10 -25 0 -20 -5 -25 -26 -25 -14 0 -23 -4 -19 -10 3 -5 19 -10 35 -10 16 0 32 -4 35 -10 4 -6 -15 -10 -50 -10 -50 0 -56 2 -50 19 3 10 -1 24 -10 31 -14 12 -21 51 -10 62 3 3 35 6 71 6 60 0 66 -3 74 -24z m434 -29 c-8 -19 -14 -18 -39 1 -20 15 -20 15 5 34 25 19 25 19 32 -1 4 -10 5 -26 2 -34z m-177 10 c13 -9 20 -22 16 -30 -3 -9 0 -22 7 -30 11 -13 3 -15 -64 -15 -74 0 -76 1 -76 24 0 29 42 66 74 66 12 0 31 -7 43 -15z m93 -45 c0 -32 -9 -36 -41 -20 -25 14 -24 24 4 38 33 16 37 15 37 -18z m43 16 c22 -17 21 -23 -2 -35 -16 -9 -19 -6 -23 19 -5 33 -1 36 25 16z m67 -81 c0 -11 -13 -15 -54 -15 -30 0 -58 -4 -61 -10 -4 -6 15 -10 49 -10 67 0 70 -10 27 -86 -54 -94 -152 -147 -271 -148 -98 0 -166 23 -229 80 -43 38 -91 115 -91 144 0 6 82 10 231 10 151 0 228 3 224 10 -4 6 -92 10 -230 10 -203 0 -247 5 -228 24 3 3 147 6 320 6 272 0 313 -2 313 -15z"/>
        </g>
    </symbol>
    <symbol id="Cookie" xmlns="http://www.w3.org/2000/svg" width="80.000000pt" height="80.000000pt" viewBox="0 0 80.000000 80.000000" preserveAspectRatio="xMidYMid meet">
        <g transform="translate(0.000000,80.000000) scale(0.100000,-0.100000)" fill="#000000" stroke="none">
            <path d="M335 681 c-88 -24 -159 -82 -196 -159 -32 -66 -32 -178 0 -244 27 -55 93 -120 148 -144 51 -23 175 -23 226 0 86 38 156 129 172 224 6 38 4 45 -19 63 -15 12 -26 31 -26 45 0 21 -4 24 -39 24 -72 0 -130 73 -111 141 6 19 6 37 1 42 -12 12 -120 18 -156 8z m120 -17 c17 -4 20 -12 17 -48 -6 -76 51 -146 121 -146 18 0 27 -5 27 -15 0 -9 11 -27 25 -41 30 -30 31 -55 4 -114 -32 -72 -65 -106 -130 -139 -85 -43 -153 -43 -238 0 -201 101 -201 377 0 478 61 30 122 39 174 25z"/>
            <path d="M411 569 c-34 -28 -19 -36 18 -9 17 12 31 23 31 26 0 11 -27 1 -49 -17z"/>
            <path d="M242 544 c-29 -20 -28 -50 2 -69 19 -13 29 -14 45 -5 28 14 29 65 2 80 -25 13 -22 13 -49 -6z m48 -19 c10 -12 10 -18 0 -30 -25 -30 -61 -7 -46 30 3 8 12 15 19 15 8 0 20 -7 27 -15z"/>
            <path d="M472 448 c-28 -28 -7 -78 33 -78 12 0 26 5 33 12 28 28 7 78 -33 78 -12 0 -26 -5 -33 -12z m58 -33 c0 -20 -5 -25 -25 -25 -20 0 -25 5 -25 25 0 20 5 25 25 25 20 0 25 -5 25 -25z"/>
            <path d="M330 414 c0 -6 14 -23 30 -39 17 -16 30 -24 30 -19 0 6 -13 23 -30 39 -16 16 -30 24 -30 19z"/>
            <path d="M256 318 c-9 -12 -16 -26 -16 -31 0 -13 29 12 41 35 14 26 -6 23 -25 -4z"/>
            <path d="M360 279 c-29 -53 40 -96 74 -47 13 19 14 25 2 43 -19 29 -62 32 -76 4z m65 -24 c0 -22 -31 -33 -47 -17 -17 17 -1 44 24 40 15 -2 23 -10 23 -23z"/>
            <path d="M510 283 c0 -8 55 -33 73 -33 18 0 4 19 -17 24 -13 3 -31 9 -40 12 -9 3 -16 2 -16 -3z"/>
        </g>
    </symbol>
    <symbol id="Deli" xmlns="http://www.w3.org/2000/svg" width="80.000000pt" height="80.000000pt" viewBox="0 0 80.000000 80.000000" preserveAspectRatio="xMidYMid meet">
        <g transform="translate(0.000000,80.000000) scale(0.100000,-0.100000)" fill="#000000" stroke="none">
            <path d="M243 621 l-172 -76 -1 -83 c0 -78 1 -83 24 -94 14 -6 27 -17 30 -25 8 -20 -10 -50 -34 -58 -16 -5 -20 -15 -20 -51 l0 -44 65 0 c37 0 65 4 65 10 0 6 -25 10 -55 10 -54 0 -55 0 -55 30 0 19 5 30 14 30 43 0 51 73 12 106 -23 21 -26 30 -26 89 l0 65 233 -2 232 -3 3 -87 c4 -121 22 -112 22 10 0 72 -5 107 -19 137 -22 50 -93 115 -124 114 -12 -1 -99 -35 -194 -78z m258 10 c81 -81 81 -81 -153 -81 -111 0 -199 2 -197 5 10 9 275 125 288 125 8 0 36 -22 62 -49z"/>
            <path d="M390 455 c-25 -30 14 -74 53 -60 19 8 27 37 15 59 -11 20 -51 21 -68 1z m53 -11 c9 -10 -4 -34 -18 -34 -17 0 -28 17 -20 30 7 11 28 13 38 4z"/>
            <path d="M206 414 c-33 -32 -8 -84 39 -84 15 0 31 10 41 25 15 23 15 27 0 50 -19 29 -56 33 -80 9z m68 -19 c9 -25 -5 -45 -30 -45 -26 0 -40 20 -30 45 3 8 16 15 30 15 13 0 26 -7 30 -15z"/>
            <path d="M607 333 c-4 -3 12 -19 34 -35 62 -45 86 -119 53 -166 -15 -21 -20 -22 -207 -22 -232 0 -242 3 -235 82 5 49 28 91 61 112 27 17 66 -11 96 -69 14 -27 27 -52 29 -54 1 -2 5 -1 9 2 11 12 -40 108 -68 128 -38 26 -66 24 -99 -9 -52 -52 -65 -148 -25 -187 24 -25 25 -25 228 -25 182 0 206 2 220 18 50 55 18 168 -61 214 -16 10 -32 15 -35 11z"/>
            <path d="M420 323 c0 -5 14 -16 31 -26 20 -11 38 -34 52 -67 21 -50 45 -70 31 -27 -16 51 -46 98 -74 112 -33 17 -40 18 -40 8z"/>
            <path d="M510 320 c0 -5 6 -10 14 -10 21 0 76 -67 83 -101 6 -30 23 -40 23 -14 0 31 -28 82 -59 108 -33 27 -61 35 -61 17z"/>
        </g>
    </symbol>
    <symbol id="Direction=Down" width="18" height="18" viewBox="0 0 18 18" fill="none" xmlns="http://www.w3.org/2000/svg">
        <path d="M13 7L9 11L5 7" stroke="#999999" stroke-width="1.2"/>
    </symbol>
    <symbol id="Direction=Left" width="18" height="18" viewBox="0 0 18 18" fill="none" xmlns="http://www.w3.org/2000/svg">
        <path d="M11 13L7 9L11 5" stroke="#999999" stroke-width="1.2"/>
    </symbol>
    <symbol id="Direction=Right" width="18" height="18" viewBox="0 0 18 18" fill="none" xmlns="http://www.w3.org/2000/svg">
        <path d="M7 5L11 9L7 13" stroke="#999999" stroke-width="1.2"/>
    </symbol>
    <symbol id="Direction=Up" width="18" height="18" viewBox="0 0 18 18" fill="none" xmlns="http://www.w3.org/2000/svg">
        <path d="M5 11L9 7L13 11" stroke="#999999" stroke-width="1.2"/>
    </symbol>
    <symbol id="Disabled=false-1" width="30" height="30" viewBox="0 0 30 30" fill="none" xmlns="http://www.w3.org/2000/svg">
        <path d="M16 10V14H20V16H16V20H14V16H10V14H14V10H16Z" fill="#333333"/>
    </symbol>
    <symbol id="Disabled=false-2" width="56" height="56" viewBox="0 0 56 56" fill="none" xmlns="http://www.w3.org/2000/svg">
        <rect x="0.5" y="0.5" width="55" height="55" rx="3.5" stroke="#E1E1E1"/>
        <path fill-rule="evenodd" clip-rule="evenodd" d="M38.9269 18.8929C38.3269 18.2926 37.6146 17.8164 36.8305 17.4914C36.0465 17.1665 35.2061 16.9993 34.3574 16.9993C33.5086 16.9993 32.6682 17.1665 31.8842 17.4914C31.1001 17.8164 30.3878 18.2926 29.7879 18.8929L27.9589 20.7209L26.1319 18.8929C24.9201 17.6809 23.2765 16.9999 21.5626 16.9997C19.8487 16.9995 18.2049 17.6802 16.9929 18.8919C15.7808 20.1037 15.0998 21.7473 15.0996 23.4612C15.0994 25.1751 15.7801 26.8189 16.9919 28.0309L18.8199 29.8599L27.2519 38.2939C27.4394 38.4814 27.6937 38.5867 27.9589 38.5867C28.224 38.5867 28.4783 38.4814 28.6659 38.2939L37.0989 29.8599L38.9269 28.0319C39.5271 27.432 40.0032 26.7198 40.328 25.9358C40.6528 25.1518 40.82 24.3115 40.82 23.4629C40.82 22.6144 40.6528 21.7741 40.328 20.9901C40.0032 20.2061 39.5271 19.4939 38.9269 18.8939V18.8929Z" stroke="#5F0080" stroke-width="1.7" stroke-linecap="round"/>
    </symbol>
    <symbol id="Disabled=false" width="30" height="30" viewBox="0 0 30 30" fill="none" xmlns="http://www.w3.org/2000/svg">
        <path d="M20 14V16H10V14H20Z" fill="#333333"/>
    </symbol>
    <symbol id="Disabled=true-1" width="30" height="30" viewBox="0 0 30 30" fill="none" xmlns="http://www.w3.org/2000/svg">
        <path d="M16 10V14H20V16H16V20H14V16H10V14H14V10H16Z" fill="#A6A6A6"/>
    </symbol>
    <symbol id="Disabled=true-2" width="56" height="56" viewBox="0 0 56 56" fill="none" xmlns="http://www.w3.org/2000/svg">
        <rect x="0.5" y="0.5" width="55" height="55" rx="3.5" stroke="#E1E1E1"/>
        <path fill-rule="evenodd" clip-rule="evenodd" d="M38.9269 18.8929C38.3269 18.2926 37.6146 17.8164 36.8305 17.4914C36.0465 17.1665 35.2061 16.9993 34.3574 16.9993C33.5086 16.9993 32.6682 17.1665 31.8842 17.4914C31.1001 17.8164 30.3878 18.2926 29.7879 18.8929L27.9589 20.7209L26.1319 18.8929C24.9201 17.6809 23.2765 16.9999 21.5626 16.9997C19.8487 16.9995 18.2049 17.6802 16.9929 18.8919C15.7808 20.1037 15.0998 21.7473 15.0996 23.4612C15.0994 25.1751 15.7801 26.8189 16.9919 28.0309L18.8199 29.8599L27.2519 38.2939C27.4394 38.4814 27.6937 38.5867 27.9589 38.5867C28.224 38.5867 28.4783 38.4814 28.6659 38.2939L37.0989 29.8599L38.9269 28.0319C39.5271 27.432 40.0032 26.7198 40.328 25.9358C40.6528 25.1518 40.82 24.3115 40.82 23.4629C40.82 22.6144 40.6528 21.7741 40.328 20.9901C40.0032 20.2061 39.5271 19.4939 38.9269 18.8939V18.8929Z" stroke="#E1E1E1" stroke-width="1.7" stroke-linecap="round"/>
    </symbol>
    <symbol id="Disabled=true" width="30" height="30" viewBox="0 0 30 30" fill="none" xmlns="http://www.w3.org/2000/svg">
        <path d="M20 14V16H10V14H20Z" fill="#A6A6A6"/>
    </symbol>
    <symbol id="Electronic" xmlns="http://www.w3.org/2000/svg" width="80.000000pt" height="80.000000pt" viewBox="0 0 80.000000 80.000000" preserveAspectRatio="xMidYMid meet">
        <g transform="translate(0.000000,80.000000) scale(0.100000,-0.100000)" fill="#000000" stroke="none">
            <path d="M454 701 c-43 -26 -54 -66 -54 -187 0 -101 -1 -104 -22 -104 -46 0 -96 20 -101 40 -4 17 -14 20 -57 20 -43 0 -53 -3 -57 -20 -3 -11 -12 -20 -20 -20 -7 0 -25 -11 -38 -25 -22 -21 -25 -33 -25 -103 0 -84 8 -102 48 -102 13 0 40 -13 59 -30 43 -38 73 -38 116 0 30 26 43 30 91 30 51 0 56 2 62 24 8 31 -12 92 -42 132 -20 28 -22 34 -9 44 12 10 15 38 15 127 0 113 0 115 29 144 38 37 82 39 116 4 25 -24 25 -25 25 -230 0 -130 -4 -205 -10 -205 -6 0 -10 71 -10 193 0 215 -6 237 -60 237 -53 0 -60 -18 -58 -153 l2 -122 5 118 c5 102 9 121 25 133 17 12 23 12 40 0 20 -13 21 -24 24 -210 2 -170 0 -196 -13 -196 -9 0 -15 -9 -15 -25 0 -22 -4 -25 -35 -25 -34 0 -35 -1 -35 -40 l0 -40 130 0 130 0 0 40 c0 39 -1 40 -35 40 -29 0 -35 4 -35 20 0 11 -7 23 -15 26 -13 5 -15 38 -15 210 l0 204 -27 30 c-36 40 -86 48 -129 21z m-194 -261 c0 -5 -18 -10 -40 -10 -22 0 -40 5 -40 10 0 6 18 10 40 10 22 0 40 -4 40 -10z m90 -53 c75 -39 121 -159 66 -173 -44 -11 -91 -1 -94 21 -6 34 -43 65 -76 65 -34 0 -76 -34 -76 -61 0 -24 -16 -32 -46 -25 -23 6 -24 10 -24 85 0 106 6 111 119 111 72 0 96 -4 131 -23z m-56 -129 c9 -12 16 -30 16 -38 0 -25 -38 -60 -65 -60 -27 0 -65 35 -65 60 0 32 30 60 65 60 24 0 39 -7 49 -22z m324 -50 c-3 -7 -21 -14 -41 -16 -28 -2 -37 1 -37 12 0 12 11 16 41 16 28 0 39 -4 37 -12z m72 -58 l0 -30 -110 0 -110 0 0 30 0 30 110 0 110 0 0 -30z"/>
            <path d="M130 340 c0 -16 5 -30 10 -30 6 0 10 14 10 30 0 17 -4 30 -10 30 -5 0 -10 -13 -10 -30z"/>
            <path d="M308 113 c23 -2 59 -2 80 0 20 2 1 4 -43 4 -44 0 -61 -2 -37 -4z"/>
        </g>
    </symbol>
    <symbol id="Fruit" xmlns="http://www.w3.org/2000/svg" width="80.000000pt" height="80.000000pt" viewBox="0 0 80.000000 80.000000" preserveAspectRatio="xMidYMid meet">
        <g transform="translate(0.000000,80.000000) scale(0.100000,-0.100000)" fill="#000000" stroke="none">
            <path d="M360 686 c0 -9 -18 -15 -58 -19 -104 -9 -171 -62 -198 -154 -30 -103 4 -226 81 -290 46 -40 175 -95 175 -75 0 5 -28 19 -62 32 -122 44 -197 157 -185 277 12 113 77 180 184 190 57 5 60 4 66 -18 10 -35 8 -99 -1 -99 -12 0 -42 34 -42 48 0 7 -4 12 -10 12 -17 0 -11 -28 13 -56 39 -45 106 -34 127 21 13 34 -1 38 -21 6 -10 -17 -23 -31 -28 -31 -11 0 -21 102 -11 114 5 5 35 7 68 4 84 -6 132 -39 170 -118 31 -66 49 -72 27 -9 -34 95 -113 149 -219 149 -43 0 -56 3 -56 15 0 8 -4 15 -10 15 -5 0 -10 -6 -10 -14z"/>
            <path d="M223 568 c-35 -39 -53 -85 -53 -138 0 -56 24 -125 40 -115 6 4 4 17 -6 37 -31 60 -19 143 28 195 11 12 18 27 16 33 -2 6 -12 2 -25 -12z"/>
            <path d="M651 436 c-26 -15 -50 -51 -51 -78 0 -21 39 -25 72 -7 18 10 48 65 48 89 0 14 -40 12 -69 -4z m42 -23 c-10 -29 -35 -53 -55 -53 -25 0 -23 16 7 45 29 30 57 34 48 8z"/>
            <path d="M516 398 c-22 -31 -20 -90 4 -120 40 -51 102 -59 151 -19 l23 18 -32 17 c-17 9 -42 16 -57 16 -20 0 -25 5 -25 25 0 30 -26 85 -40 85 -5 0 -16 -10 -24 -22z m40 -44 c5 -26 2 -40 -9 -51 -14 -15 -16 -14 -23 10 -7 31 2 77 16 77 5 0 12 -16 16 -36z m93 -73 c11 -7 10 -11 -7 -20 -37 -20 -93 -7 -78 18 8 13 65 14 85 2z"/>
            <path d="M411 339 c-25 -41 -28 -115 -5 -148 16 -22 15 -24 -22 -62 -45 -46 -25 -54 22 -8 31 30 32 30 62 15 17 -9 41 -16 53 -16 32 0 111 40 106 54 -7 21 -68 48 -106 48 -35 -1 -38 1 -33 23 5 31 -14 88 -38 110 -18 16 -20 16 -39 -16z m44 -29 c20 -39 19 -73 -4 -101 l-20 -24 -15 37 c-9 20 -14 43 -11 50 28 80 28 80 50 38z m128 -122 c45 -23 -43 -59 -96 -39 -33 13 -31 31 4 48 24 12 57 9 92 -9z"/>
            <path d="M220 301 c0 -13 29 -35 37 -28 7 8 -15 37 -28 37 -5 0 -9 -4 -9 -9z"/>
        </g>
    </symbol>
    <symbol id="Hamburger" width="16" height="14" viewBox="0 0 16 14" fill="none" xmlns="http://www.w3.org/2000/svg">
        <g clip-path="url(#clip0_5514_3072__Hamburger)">
            <path fill-rule="evenodd" clip-rule="evenodd" d="M0 0H16V1.7H0V0ZM0 6.15H16V7.85H0V6.15ZM0 12.3H16V14H0V12.3Z" fill="#5F0080"/>
        </g>
        <defs>
            <clipPath id="clip0_5514_3072__Hamburger">
                <rect width="16" height="14" fill="white"/>
            </clipPath>
        </defs>
    </symbol>
    <symbol id="Health" xmlns="http://www.w3.org/2000/svg" width="80.000000pt" height="80.000000pt" viewBox="0 0 80.000000 80.000000" preserveAspectRatio="xMidYMid meet">
        <g transform="translate(0.000000,80.000000) scale(0.100000,-0.100000)" fill="#000000" stroke="none">
            <path d="M150 665 c0 -38 -5 -50 -27 -70 l-28 -23 -3 -198 c-4 -216 2 -245 49 -269 33 -17 219 -21 219 -5 0 6 -40 10 -100 10 -94 0 -103 2 -125 25 -14 13 -25 35 -25 49 l0 25 128 4 127 3 -127 2 -128 2 0 135 0 135 185 0 185 0 0 35 c0 24 -9 45 -30 68 -23 27 -30 44 -30 76 l0 41 -135 0 -135 0 0 -45z m61 8 c1 -17 2 -17 6 0 6 24 63 24 64 0 1 -17 2 -17 6 0 3 11 14 17 34 17 21 0 29 -5 29 -17 1 -17 1 -17 14 0 7 9 21 17 30 17 13 0 17 -7 14 -31 l-3 -30 -118 -2 -117 -2 0 33 c0 25 4 32 20 32 12 0 20 -7 21 -17z m229 -93 c11 -11 20 -31 20 -45 l0 -25 -175 0 -175 0 0 25 c0 14 9 34 20 45 18 18 33 20 155 20 122 0 137 -2 155 -20z"/>
            <path d="M410 268 l0 -179 148 3 147 3 0 174 0 174 -147 2 -148 1 0 -178z m145 2 l64 0 3 77 c3 83 1 80 58 74 6 -1 10 -60 10 -156 l0 -155 -135 0 -135 0 0 154 0 155 33 3 32 3 3 -77 3 -78 64 0z m43 151 c8 -1 12 -21 12 -66 l0 -65 -50 0 -50 0 0 68 0 68 38 -2 c20 -1 43 -3 50 -3z"/>
            <path d="M222 381 c3 -29 13 -60 23 -71 23 -25 76 -26 98 -2 42 46 1 108 -77 119 l-49 6 5 -52z m106 2 c13 -19 16 -53 4 -53 -4 0 -26 19 -47 41 l-40 42 35 -7 c19 -3 41 -14 48 -23z m-17 -76 c-9 -9 -51 8 -63 27 -4 6 -8 22 -8 36 0 23 2 23 40 -15 23 -23 36 -43 31 -48z"/>
        </g>
    </symbol>
    <symbol id="Heart" width="36" height="36" viewBox="0 0 36 36" fill="none" xmlns="http://www.w3.org/2000/svg">
        <path fill-rule="evenodd" clip-rule="evenodd" d="M28.9269 8.89295C28.3269 8.29261 27.6146 7.81636 26.8305 7.49144C26.0465 7.16651 25.2061 6.99927 24.3574 6.99927C23.5086 6.99927 22.6682 7.16651 21.8842 7.49144C21.1001 7.81636 20.3878 8.29261 19.7879 8.89295L17.9589 10.7209L16.1319 8.89295C14.9201 7.68091 13.2765 6.99989 11.5626 6.9997C9.84867 6.99951 8.2049 7.68017 6.99286 8.89195C5.78082 10.1037 5.0998 11.7473 5.09961 13.4612C5.09942 15.1751 5.78008 16.8189 6.99186 18.0309L8.81986 19.8599L17.2519 28.2939C17.4394 28.4814 17.6937 28.5867 17.9589 28.5867C18.224 28.5867 18.4783 28.4814 18.6659 28.2939L27.0989 19.8599L28.9269 18.0319C29.5271 17.432 30.0032 16.7198 30.328 15.9358C30.6528 15.1518 30.82 14.3115 30.82 13.4629C30.82 12.6144 30.6528 11.7741 30.328 10.9901C30.0032 10.2061 29.5271 9.49386 28.9269 8.89395V8.89295Z" stroke="currentColor" stroke-width="1.7" stroke-linecap="round"/>
    </symbol>
    <symbol id="isChecked=false" width="24" height="24" viewBox="0 0 24 24" fill="none" xmlns="http://www.w3.org/2000/svg">
        <g clip-path="url(#clip0_5514_3294__isChecked=false)">
            <path d="M12 23.5C18.3513 23.5 23.5 18.3513 23.5 12C23.5 5.64873 18.3513 0.5 12 0.5C5.64873 0.5 0.5 5.64873 0.5 12C0.5 18.3513 5.64873 23.5 12 23.5Z" stroke="#C4C4C4"/>
            <path d="M7 12.667L10.385 16L18 8.5" stroke="#C4C4C4" stroke-width="1.5" stroke-linecap="round" stroke-linejoin="round"/>
        </g>
        <defs>
            <clipPath id="clip0_5514_3294__isChecked=false">
                <rect width="24" height="24" fill="white"/>
            </clipPath>
        </defs>
    </symbol>
    <symbol id="isChecked=true" width="24" height="24" viewBox="0 0 24 24" fill="none" xmlns="http://www.w3.org/2000/svg">
        <g clip-path="url(#clip0_5514_3302__isChecked=true)">
            <path d="M12 23.5C18.3513 23.5 23.5 18.3513 23.5 12C23.5 5.64873 18.3513 0.5 12 0.5C5.64873 0.5 0.5 5.64873 0.5 12C0.5 18.3513 5.64873 23.5 12 23.5Z" fill="#5F0080"/>
            <path d="M7 12.667L10.385 16L18 8.5" stroke="#C4C4C4" stroke-width="1.5" stroke-linecap="round" stroke-linejoin="round"/>
        </g>
        <defs>
            <clipPath id="clip0_5514_3302__isChecked=true">
                <rect width="24" height="24" fill="white"/>
            </clipPath>
        </defs>
    </symbol>
    <symbol id="isSelected=false" width="24" height="24" viewBox="0 0 24 24" fill="none" xmlns="http://www.w3.org/2000/svg">
        <circle cx="12" cy="12" r="11.5" stroke="#C4C4C4"/>
    </symbol>
    <symbol id="isSelected=true" width="24" height="24" viewBox="0 0 24 24" fill="none" xmlns="http://www.w3.org/2000/svg">
        <circle cx="12" cy="12" r="12" fill="#5F0080"/>
        <circle cx="12" cy="12" r="5" fill="#C4C4C4"/>
    </symbol>
    <symbol id="Kids" xmlns="http://www.w3.org/2000/svg" width="80.000000pt" height="80.000000pt" viewBox="0 0 80.000000 80.000000" preserveAspectRatio="xMidYMid meet">
        <g transform="translate(0.000000,80.000000) scale(0.100000,-0.100000)" fill="#000000" stroke="none">
            <path d="M362 714 c-12 -8 -22 -24 -22 -34 0 -11 -9 -24 -20 -30 -11 -6 -29 -29 -40 -50 -16 -30 -26 -40 -45 -40 -24 0 -25 -3 -25 -60 0 -47 3 -60 15 -60 13 0 15 -22 15 -140 0 -166 9 -193 69 -211 21 -6 75 -10 119 -8 73 4 85 7 109 32 28 27 28 29 31 175 3 113 7 149 18 155 9 5 14 26 14 62 0 54 0 55 -30 55 -24 0 -33 7 -50 40 -11 21 -29 44 -40 50 -11 6 -20 17 -20 25 0 21 -36 55 -58 55 -10 0 -28 -7 -40 -16z m66 -16 c7 -7 12 -18 12 -25 0 -8 16 -29 35 -49 58 -58 51 -64 -75 -64 -126 0 -136 8 -75 66 19 18 35 39 35 46 0 19 20 38 40 38 9 0 21 -5 28 -12z m150 -195 l3 -43 -175 0 -176 0 0 38 c0 21 3 41 6 45 3 3 81 5 172 4 l167 -2 3 -42z m-28 -198 c0 -144 -8 -176 -47 -194 -35 -16 -168 -14 -202 4 -34 17 -41 33 -41 91 l0 44 40 0 c22 0 40 5 40 10 0 6 -18 10 -40 10 -29 0 -40 4 -40 15 0 11 11 15 40 15 22 0 40 5 40 10 0 6 -18 10 -40 10 -29 0 -40 4 -40 15 0 11 11 15 40 15 22 0 40 5 40 10 0 6 -18 10 -40 10 -39 0 -40 1 -40 35 l0 35 145 0 145 0 0 -135z"/>
            <path d="M490 290 c0 -60 4 -100 10 -100 6 0 10 40 10 100 0 60 -4 100 -10 100 -6 0 -10 -40 -10 -100z"/>
        </g>
    </symbol>
    <symbol id="Kitchen" xmlns="http://www.w3.org/2000/svg" width="80.000000pt" height="80.000000pt" viewBox="0 0 80.000000 80.000000" preserveAspectRatio="xMidYMid meet">
        <g transform="translate(0.000000,80.000000) scale(0.100000,-0.100000)" fill="#000000" stroke="none">
            <path d="M194 716 c-16 -12 -20 -29 -22 -115 -4 -101 -4 -101 22 -111 25 -9 26 -13 26 -80 l0 -70 -65 0 -65 0 0 -135 0 -135 135 0 135 0 0 135 0 135 -65 0 -65 0 0 70 c0 67 1 71 26 80 26 10 26 10 22 111 -2 86 -6 103 -22 115 -11 8 -25 14 -31 14 -6 0 -20 -6 -31 -14z m54 -18 c8 -8 12 -45 12 -100 l0 -88 -35 0 -35 0 0 88 c0 85 8 112 35 112 6 0 16 -5 23 -12z m92 -493 l0 -115 -115 0 -115 0 0 115 0 115 115 0 115 0 0 -115z"/>
            <path d="M222 665 c0 -16 2 -22 5 -12 2 9 2 23 0 30 -3 6 -5 -1 -5 -18z"/>
            <path d="M177 263 c-11 -10 -8 -111 3 -118 6 -4 10 18 10 59 0 66 -1 72 -13 59z"/>
            <path d="M260 205 c0 -42 4 -64 10 -60 6 3 10 30 10 60 0 30 -4 57 -10 60 -6 4 -10 -18 -10 -60z"/>
            <path d="M526 714 c-13 -12 -16 -38 -16 -120 0 -97 1 -104 20 -104 18 0 20 -7 20 -68 l0 -67 -49 -23 c-39 -17 -54 -32 -70 -65 -24 -49 -26 -73 -10 -114 38 -101 163 -130 241 -56 78 75 46 207 -60 244 -32 11 -32 11 -32 80 0 62 2 69 20 69 19 0 20 7 20 103 0 88 -3 106 -18 120 -23 21 -46 22 -66 1z m62 -106 l3 -98 -31 0 -30 0 0 93 c0 52 3 97 7 101 4 4 16 6 28 4 18 -3 20 -11 23 -100z m43 -301 c67 -45 75 -139 18 -196 -103 -103 -271 20 -204 150 35 66 123 88 186 46z"/>
            <path d="M550 665 c0 -15 4 -24 10 -20 6 3 10 12 10 20 0 8 -4 17 -10 20 -6 4 -10 -5 -10 -20z"/>
            <path d="M493 264 c-3 -8 -1 -20 6 -27 8 -8 11 -4 11 16 0 30 -7 35 -17 11z"/>
            <path d="M612 255 c0 -16 2 -22 5 -12 2 9 2 23 0 30 -3 6 -5 -1 -5 -18z"/>
            <path d="M550 200 c0 -11 5 -20 10 -20 6 0 10 9 10 20 0 11 -4 20 -10 20 -5 0 -10 -9 -10 -20z"/>
            <path d="M493 154 c-3 -8 -1 -20 6 -27 8 -8 11 -4 11 16 0 30 -7 35 -17 11z"/>
            <path d="M612 145 c0 -16 2 -22 5 -12 2 9 2 23 0 30 -3 6 -5 -1 -5 -18z"/>
        </g>
    </symbol>
    <symbol id="Liquor" xmlns="http://www.w3.org/2000/svg" width="80.000000pt" height="80.000000pt" viewBox="0 0 80.000000 80.000000" preserveAspectRatio="xMidYMid meet">
        <g transform="translate(0.000000,80.000000) scale(0.100000,-0.100000)" fill="#000000" stroke="none">
            <path d="M214 726 c-3 -8 2 -28 10 -45 30 -57 24 -107 -25 -211 -42 -90 -44 -99 -44 -185 0 -74 4 -97 23 -132 12 -23 22 -45 22 -48 0 -3 -16 -5 -35 -5 -19 0 -35 -4 -35 -10 0 -6 97 -10 270 -10 173 0 270 4 270 10 0 6 -16 10 -35 10 -31 0 -35 3 -35 26 0 14 9 33 20 42 21 17 82 167 72 177 -3 3 -79 5 -169 5 -128 0 -164 -3 -159 -12 2 -7 14 -43 25 -79 12 -36 30 -74 41 -84 11 -10 20 -31 20 -47 l0 -29 -112 3 -112 3 -25 50 c-22 42 -26 63 -26 135 1 78 4 93 42 175 22 50 44 100 48 113 5 19 13 22 56 22 38 0 49 -3 49 -16 0 -14 75 -192 86 -203 2 -2 7 -2 10 2 3 3 -13 46 -35 96 -45 99 -50 142 -25 195 28 58 18 66 -91 66 -73 0 -97 -3 -101 -14z m182 -18 c-2 -7 -10 -30 -17 -51 -12 -38 -13 -38 -62 -35 -49 3 -49 3 -67 51 l-18 47 85 0 c64 0 83 -3 79 -12z m274 -384 c0 -3 -5 -14 -10 -25 -10 -17 -22 -19 -130 -19 -108 0 -120 2 -130 19 -5 11 -10 22 -10 25 0 3 63 6 140 6 77 0 140 -3 140 -6z m-31 -93 c-18 -52 -39 -62 -115 -59 -65 3 -69 5 -91 37 -13 19 -23 38 -23 42 0 5 54 9 119 9 l120 0 -10 -29z m-59 -107 c0 -24 -2 -25 -52 -22 -46 3 -53 6 -56 26 -3 21 0 22 52 22 53 0 56 -1 56 -26z"/>
        </g>
    </symbol>
    <symbol id="Living" xmlns="http://www.w3.org/2000/svg" width="80.000000pt" height="80.000000pt" viewBox="0 0 80.000000 80.000000" preserveAspectRatio="xMidYMid meet">
        <g transform="translate(0.000000,80.000000) scale(0.100000,-0.100000)" fill="#000000" stroke="none">
            <path d="M287 714 c-4 -4 -7 -22 -7 -41 0 -25 -5 -36 -22 -42 -35 -14 -85 -71 -110 -126 -20 -44 -23 -69 -26 -223 -3 -126 -1 -177 8 -187 10 -12 39 -15 131 -15 73 0 119 4 119 10 0 6 -47 10 -121 10 l-121 0 4 178 c3 176 3 179 33 237 45 88 76 105 191 105 91 0 93 0 119 -31 14 -17 28 -29 32 -26 10 10 -27 57 -52 67 -18 7 -24 18 -27 47 l-3 38 -70 3 c-39 1 -74 0 -78 -4z m133 -44 l0 -30 -60 0 -60 0 0 30 0 30 60 0 60 0 0 -30z"/>
            <path d="M539 468 l0 -113 -40 100 c-43 107 -46 111 -55 103 -3 -3 11 -45 30 -93 28 -69 34 -96 30 -126 -6 -35 -9 -38 -43 -41 l-36 -3 0 -105 0 -105 125 0 125 0 0 105 0 105 -36 3 c-55 5 -57 41 -8 165 43 106 43 107 31 107 -5 0 -26 -44 -47 -97 -21 -54 -42 -102 -46 -108 -5 -5 -9 40 -9 103 0 68 -4 112 -10 112 -6 0 -10 -45 -11 -112z m41 -148 c0 -16 -7 -20 -30 -20 -23 0 -30 4 -30 20 0 16 7 20 30 20 23 0 30 -4 30 -20z m-12 -62 c3 -16 -5 -18 -62 -18 -60 0 -66 2 -66 20 0 19 5 21 62 18 50 -2 63 -6 66 -20z m92 2 c0 -16 -7 -20 -35 -20 -19 0 -35 2 -35 4 0 2 -3 11 -6 20 -5 13 2 16 35 16 34 0 41 -3 41 -20z m-150 -45 c0 -16 -51 -115 -59 -115 -7 0 -11 25 -11 60 l0 60 35 0 c19 0 35 -2 35 -5z m98 -48 c12 -29 22 -56 22 -60 0 -4 -33 -7 -74 -7 l-75 0 26 60 c23 52 30 60 53 60 22 0 30 -8 48 -53z m51 -9 l0 -63 -25 54 c-30 67 -30 71 1 71 24 0 25 -2 24 -62z"/>
            <path d="M220 515 c-39 -47 -54 -209 -22 -238 46 -42 82 -6 82 81 l0 62 80 0 c47 0 80 4 80 10 0 6 -33 10 -80 10 l-80 0 0 33 c0 50 -33 74 -60 42z m38 -117 l-3 -113 -25 0 c-24 0 -25 4 -28 60 -5 81 21 165 50 165 5 0 7 -49 6 -112z"/>
        </g>
    </symbol>
    <symbol id="Location" width="36" height="36" viewBox="0 0 36 36" fill="none" xmlns="http://www.w3.org/2000/svg">
        <g clip-path="url(#clip0_5514_3184__Location)">
            <path fill-rule="evenodd" clip-rule="evenodd" d="M18.0062 30C18.0062 30 8.7002 22.544 8.7002 15.306C8.7002 12.8379 9.68065 10.4709 11.4259 8.72566C13.1711 6.98045 15.5381 6 18.0062 6C20.4743 6 22.8413 6.98045 24.5865 8.72566C26.3317 10.4709 27.3122 12.8379 27.3122 15.306C27.3122 22.544 18.0062 30 18.0062 30Z" stroke="#333333" stroke-width="1.7" stroke-linecap="round" stroke-linejoin="round"/>
            <path d="M17.9124 17.907C19.45 17.907 20.6964 16.6606 20.6964 15.123C20.6964 13.5854 19.45 12.339 17.9124 12.339C16.3749 12.339 15.1284 13.5854 15.1284 15.123C15.1284 16.6606 16.3749 17.907 17.9124 17.907Z" stroke="#333333" stroke-width="1.7" stroke-linecap="square" stroke-linejoin="round"/>
        </g>
        <defs>
            <clipPath id="clip0_5514_3184__Location">
                <rect width="36" height="36" fill="white"/>
            </clipPath>
        </defs>
    </symbol>
    <symbol id="Lock" width="12" height="14" viewBox="0 0 12 14" fill="none" xmlns="http://www.w3.org/2000/svg">
        <g clip-path="url(#clip0_5514_4040__Lock)">
            <path fill-rule="evenodd" clip-rule="evenodd" d="M11.043 12.575C11.0425 12.6432 11.0151 12.7084 10.9668 12.7565C10.9185 12.8046 10.8532 12.8317 10.785 12.832H1.214C1.14583 12.8317 1.08051 12.8046 1.03221 12.7565C0.983908 12.7084 0.956526 12.6432 0.956 12.575V5.42C0.956 5.278 1.073 5.162 1.214 5.162H10.784C10.928 5.162 11.044 5.278 11.044 5.42V12.575H11.043ZM3.685 3.237C3.68579 2.63238 3.9264 2.05276 4.35403 1.62532C4.78165 1.19788 5.36138 0.957529 5.966 0.957C6.5707 0.957265 7.15058 1.19753 7.57826 1.62503C8.00595 2.05253 8.24647 2.6323 8.247 3.237V4.205H3.685V3.237ZM10.785 4.205H9.205V3.237C9.20394 2.3783 8.86215 1.55512 8.25467 0.948206C7.6472 0.341294 6.8237 0.000264295 5.965 0C5.10708 0.00132358 4.28472 0.342852 3.67826 0.949678C3.07181 1.5565 2.73079 2.37908 2.73 3.237V4.205H1.214C0.544 4.205 0 4.75 0 5.42V12.575C0 13.244 0.545 13.789 1.214 13.789H10.784C11.455 13.789 12 13.244 12 12.575V5.42C12 4.75 11.455 4.205 10.785 4.205Z" fill="#B5B5B5"/>
            <path fill-rule="evenodd" clip-rule="evenodd" d="M5 8.19995C5 8.54295 5.184 8.83195 5.448 9.01195V10.342H6.551V9.01195C6.68673 8.92384 6.79868 8.80368 6.87698 8.66207C6.95529 8.52046 6.99754 8.36175 7 8.19995C7 7.93473 6.89464 7.68038 6.70711 7.49284C6.51957 7.30531 6.26522 7.19995 6 7.19995C5.73478 7.19995 5.48043 7.30531 5.29289 7.49284C5.10536 7.68038 5 7.93473 5 8.19995Z" fill="#B5B5B5"/>
        </g>
        <defs>
            <clipPath id="clip0_5514_4040__Lock">
                <rect width="12" height="14" fill="white"/>
            </clipPath>
        </defs>
    </symbol>
    <symbol id="logo" width="82" height="47" viewBox="0 0 82 47" fill="none" xmlns="http://www.w3.org/2000/svg">
        <path d="M80.7402 4.49992C80.4002 4.10992 79.9602 3.91992 79.4002 3.91992C78.8402 3.91992 78.3402 4.10992 77.8902 4.49992C77.4402 4.88992 77.1702 5.35992 77.0802 5.89992C76.9902 6.44992 77.1102 6.90992 77.4402 7.28992C77.7702 7.66992 78.2102 7.85992 78.7702 7.85992C79.3302 7.85992 79.8402 7.66992 80.2902 7.28992C80.7502 6.90992 81.0202 6.44992 81.1102 5.89992C81.2002 5.34992 81.0702 4.88992 80.7402 4.49992Z" fill="#5F0080"/>
        <path d="M79.4902 10.12C79.3502 9.79999 79.1402 9.52999 78.2002 9.30999C76.5802 8.92999 74.0402 9.53999 74.7702 10.27C75.0902 10.58 74.9102 11.61 74.7202 12.39L71.7502 20.29C71.3902 21.07 70.7202 22.33 70.2402 22.79C69.7602 23.26 69.2402 23.49 68.6802 23.49C68.2402 23.49 67.9402 23.41 67.7802 23.24C67.6202 23.07 67.5702 22.8 67.6302 22.41C67.6802 22.08 67.7702 21.77 67.9002 21.48L74.7302 3.36999L75.2002 2.09999H75.1702C75.2802 1.71999 75.3402 1.36999 75.1902 1.01999C75.0502 0.699992 74.8402 0.429992 73.9002 0.209992C72.2802 -0.170008 69.7402 0.439992 70.4702 1.16999C70.8602 1.54999 70.5002 3.03999 70.2902 3.78999L67.0402 12.38L67.0602 12.26C67.1302 11.81 66.9902 11.45 66.6402 11.18C66.2902 10.91 65.7002 10.77 64.8902 10.77C63.2802 10.77 61.8102 11.32 60.4802 12.41C59.1402 13.51 58.0602 14.84 57.2202 16.43C56.3802 18.01 55.8502 19.52 55.6202 20.96C55.6202 21 55.6202 21.04 55.6102 21.08C55.1702 22.56 54.9602 22.75 54.5902 23.11C54.1702 23.53 53.6602 23.74 53.0602 23.73C52.6202 23.73 52.3302 23.62 52.1902 23.41C52.0502 23.2 52.0002 22.9 52.0702 22.51C52.1202 22.18 52.2602 21.73 52.4802 21.16C52.7002 20.59 53.0802 19.09 53.3402 18.48C53.7602 17.49 54.0902 16.65 54.3402 15.96C54.5902 15.27 54.7602 14.65 54.8502 14.08C55.0302 12.97 54.8502 12.15 54.3502 11.6C53.8402 11.06 53.0802 10.78 52.0702 10.78C50.7602 10.78 49.5202 11.31 48.3702 12.37C48.4602 11.99 48.4902 11.61 48.3502 11.3C48.2102 10.98 47.9602 10.66 47.0202 10.44C45.4002 10.06 42.8602 10.67 43.5902 11.4C44.1202 11.92 43.2802 14.46 43.2802 14.46L40.7902 21.08L40.7402 21.11C40.3702 21.93 39.9402 22.59 39.4602 23.09C38.9702 23.59 38.4502 23.85 37.9002 23.85C37.0902 23.85 36.7502 23.43 36.8802 22.6C36.9302 22.27 37.0202 21.96 37.1502 21.67L40.0502 13.99L40.1602 13.62C40.5402 12.62 40.2202 11.92 39.4902 11.53C38.5102 11.01 36.8402 11.02 36.1502 11.31C36.1002 11.25 36.0502 11.2 35.9902 11.15C35.6402 10.88 35.0502 10.74 34.2402 10.74C32.6302 10.74 31.1602 11.29 29.8302 12.38C28.4902 13.48 27.4102 14.81 26.5702 16.4C25.7902 17.88 25.2802 19.3 25.0302 20.65C19.6002 20.85 18.8202 26.63 24.0102 12.74C24.7702 10.52 25.9302 8.24999 26.4702 5.95999C27.6602 0.339992 22.2102 -0.910008 18.0902 0.849992C13.1702 2.49999 8.73017 6.80999 6.08017 11.47C4.44017 13.89 0.940166 25.08 7.36017 24.17C7.83017 23.99 8.88017 23.27 8.56017 22.63C8.17017 22.39 7.56017 22.32 7.27017 21.86C3.71017 15.37 11.5402 5.35999 17.6002 3.37999C18.3902 3.08999 21.0702 2.42999 20.6002 4.09999C19.7402 8.00999 16.9202 16.09 15.0402 21.55C14.2602 23.14 14.3202 25.13 12.7102 26.13C7.94017 30.18 -3.21983 38.19 0.900165 44.94C2.17017 46.44 4.77017 46.78 6.51017 46.06C11.3902 44.2 14.0502 37.52 15.9302 33.33C16.8002 31.37 17.5102 29.38 18.3202 27.36C18.7502 26.49 18.8602 25.29 19.6102 24.57C21.0302 23.59 23.0902 22.97 24.9402 23.24C25.0502 23.74 25.2202 24.17 25.5002 24.51C26.1302 25.27 27.0202 25.65 28.1502 25.65C29.1202 25.65 30.0002 25.4 30.7802 24.91C31.5602 24.42 32.3102 23.77 33.0102 22.98C32.9702 23.85 33.1702 24.52 33.6002 24.98C34.0302 25.44 34.6702 25.67 35.5002 25.67C36.5902 25.67 37.7402 25.3 38.9402 24.55C39.2402 24.36 39.4902 24.16 39.7102 23.96L39.1302 25.5H43.4202L47.2002 15.29C47.5602 14.49 47.9902 13.85 48.4602 13.35C48.9402 12.86 49.4302 12.61 49.9502 12.61C50.6602 12.61 50.9402 13.11 50.7802 14.1C50.7202 14.51 50.5602 15.04 50.3202 15.7C50.0802 16.36 49.5502 17.9 49.2802 18.58C49.2202 18.72 49.0902 19.03 48.9102 19.51C48.7202 20 48.5402 20.5 48.3602 21.01C48.1802 21.52 48.0602 21.99 47.9902 22.39C47.8402 23.32 48.0002 24.1 48.4702 24.73C48.9402 25.36 49.7702 25.68 50.9802 25.68C52.0102 25.68 53.0702 25.32 54.1502 24.59C54.6702 24.24 55.1302 23.73 55.5802 23.05C55.6702 23.66 55.8802 24.16 56.2002 24.54C56.8302 25.3 57.7202 25.68 58.8502 25.68C59.8202 25.68 60.7102 25.43 61.5202 24.92C62.3202 24.42 63.0502 23.78 63.6902 23C63.6802 23.81 63.8902 24.44 64.3302 24.86C64.7702 25.29 65.3902 25.5 66.2102 25.5C68.1002 25.5 69.7402 24.68 71.1602 23.08C71.1602 23.81 71.3302 24.38 71.6902 24.81C72.1802 25.39 72.9002 25.68 73.8602 25.69C74.7102 25.69 75.4902 25.43 76.2002 24.92C76.9102 24.41 77.3802 23.66 77.6102 22.69C77.2602 23.16 76.7702 23.5 76.4102 23.5C75.9702 23.5 75.6702 23.42 75.5102 23.25C75.3502 23.08 75.3002 22.81 75.3602 22.42C75.4102 22.09 75.7202 21.14 75.8502 20.85L79.0102 12.44L79.0502 12.46L79.2702 11.84C79.3902 11.53 79.5002 11.24 79.5602 10.96C79.6202 10.66 79.6202 10.38 79.5002 10.11L79.4902 10.12ZM12.6102 29.16C12.5702 29.39 12.4202 29.67 12.2802 29.95C12.2002 30.13 12.1302 30.32 12.0502 30.5C12.0502 30.51 12.0502 30.53 12.0402 30.54C11.7402 31.32 11.3302 32.22 11.0002 32.97C10.5602 33.98 10.1002 34.98 9.61016 35.97C9.20016 36.82 8.76016 37.67 8.23016 38.53C8.14016 38.68 8.04016 38.83 7.95017 38.99C7.78017 39.26 7.62017 39.53 7.45017 39.8C7.35017 39.93 7.25017 40.07 7.15017 40.2C6.82017 40.66 6.46017 41.11 6.07017 41.51C6.00017 41.59 5.92017 41.66 5.85017 41.74C5.84017 41.75 5.82017 41.77 5.81017 41.78C5.50017 42.07 5.17017 42.33 4.81017 42.53C4.79017 42.53 4.78017 42.55 4.77017 42.56H4.75017C4.75017 42.56 4.72017 42.58 4.71017 42.59C4.13017 42.87 3.67017 42.96 3.31017 42.92C2.70017 42.87 2.38017 42.44 2.28017 41.85C2.14017 41.17 2.29017 40.28 2.63017 39.55C2.80017 39.15 3.00017 38.78 3.23017 38.49C3.26017 38.44 3.30017 38.38 3.33017 38.33C4.03017 37.18 4.88017 36.1 5.82017 35.05C7.11017 33.58 8.58016 32.18 10.0702 30.89C10.8802 30.14 11.9502 29.19 12.4102 28.97C12.4502 28.94 12.5002 28.9 12.5402 28.87C12.5602 28.89 12.5602 28.91 12.5702 28.93C12.6502 28.93 12.6702 29.01 12.6102 29.18V29.16ZM33.1302 20.81C32.8202 21.61 32.3902 22.23 31.8302 22.69C31.2702 23.15 30.7402 23.37 30.2502 23.37C29.8302 23.37 29.5002 23.23 29.2602 22.96C29.0202 22.69 28.9702 22.07 29.1302 21.1C29.2802 20.13 29.9202 18.46 30.4802 17.19C31.0402 15.92 31.7802 14.4 32.5602 13.49C33.3402 12.59 34.1202 12.14 34.9202 12.14C35.3402 12.14 35.6202 12.26 35.7802 12.5C35.9402 12.74 36.0002 12.99 35.9602 13.24L33.1302 20.8V20.81ZM63.7802 21.07C63.4802 21.83 63.0502 22.42 62.5002 22.85C61.9502 23.28 61.4302 23.49 60.9502 23.49C60.5302 23.49 60.2002 23.35 59.9602 23.08C59.7202 22.81 59.6702 22.19 59.8302 21.22C59.9802 20.25 60.6002 18.49 61.1602 17.22C61.7202 15.95 62.5302 14.59 63.3102 13.69C64.0902 12.79 64.8702 12.34 65.6702 12.34C66.3002 12.34 66.6602 12.68 66.7302 13.36L63.7802 21.08V21.07Z" fill="#5F0080"/>
    </symbol>
    <symbol id="Meat" xmlns="http://www.w3.org/2000/svg" width="80.000000pt" height="80.000000pt" viewBox="0 0 80.000000 80.000000" preserveAspectRatio="xMidYMid meet">
        <g transform="translate(0.000000,80.000000) scale(0.100000,-0.100000)" fill="#000000" stroke="none">
            <path d="M179 627 c-41 -27 -99 -135 -99 -182 0 -53 37 -138 81 -189 117 -133 354 -155 474 -45 66 61 88 114 83 199 -3 60 -8 73 -32 99 -35 37 -65 47 -178 60 -66 8 -104 19 -157 46 -82 41 -125 44 -172 12z m168 -32 c55 -29 86 -38 163 -46 110 -12 149 -28 173 -68 25 -42 21 -82 -12 -127 -38 -53 -59 -70 -116 -95 -63 -28 -167 -23 -240 12 -94 44 -163 141 -173 241 -4 45 -2 50 32 83 49 46 84 46 173 0z m-204 -165 c26 -70 101 -151 168 -179 71 -31 162 -37 233 -17 45 13 70 29 108 67 37 37 48 44 42 27 -15 -49 -63 -105 -116 -133 -48 -27 -61 -30 -148 -30 -75 1 -105 5 -141 22 -120 54 -204 188 -184 291 4 21 10 30 13 22 2 -8 14 -40 25 -70z"/>
            <path d="M250 510 c-35 -27 -17 -37 19 -10 17 12 31 23 31 26 0 10 -27 2 -50 -16z"/>
            <path d="M315 475 c-46 -33 -66 -55 -50 -55 11 0 115 74 115 83 0 14 -15 7 -65 -28z"/>
            <path d="M484 447 c-22 -19 -26 -29 -20 -51 13 -51 91 -61 113 -14 13 28 1 63 -26 77 -28 16 -36 14 -67 -12z m66 -17 c16 -16 18 -25 10 -40 -18 -33 -80 -20 -80 16 0 15 27 44 41 44 5 0 18 -9 29 -20z"/>
        </g>
    </symbol>
    <symbol id="Notice" width="48" height="48" viewBox="0 0 48 48" fill="none" xmlns="http://www.w3.org/2000/svg">
        <g clip-path="url(#clip0_5514_4063__Notice)">
            <path d="M24 47C36.7025 47 47 36.7025 47 24C47 11.2975 36.7025 1 24 1C11.2975 1 1 11.2975 1 24C1 36.7025 11.2975 47 24 47Z" stroke="#E2E2E2" stroke-width="2"/>
            <path fill-rule="evenodd" clip-rule="evenodd" d="M24 13C25.1046 13 26 13.8954 26 15V26C26 27.1046 25.1046 28 24 28C22.8954 28 22 27.1046 22 26V15C22 13.8954 22.8954 13 24 13ZM24 31C25.1046 31 26 31.8954 26 33C26 34.1046 25.1046 35 24 35C22.8954 35 22 34.1046 22 33C22 31.8954 22.8954 31 24 31Z" fill="#E2E2E2"/>
        </g>
        <defs>
            <clipPath id="clip0_5514_4063__Notice">
                <rect width="48" height="48" fill="white"/>
            </clipPath>
        </defs>
    </symbol>
    <symbol id="Pet" xmlns="http://www.w3.org/2000/svg" width="80.000000pt" height="80.000000pt" viewBox="0 0 80.000000 80.000000" preserveAspectRatio="xMidYMid meet">
        <g transform="translate(0.000000,80.000000) scale(0.100000,-0.100000)" fill="#000000" stroke="none">
            <path d="M390 685 c-14 -8 -35 -14 -47 -15 -13 0 -32 -9 -43 -20 -11 -11 -28 -20 -39 -20 -28 0 -71 -39 -71 -65 0 -12 -6 -25 -13 -28 -8 -3 -29 -56 -48 -117 -18 -62 -39 -115 -46 -117 -7 -3 -13 -20 -13 -39 l0 -34 70 0 c40 0 70 4 70 10 0 6 -28 10 -65 10 -50 0 -65 3 -65 15 0 14 24 21 100 28 28 3 26 4 -12 5 -57 2 -58 8 -27 100 l21 62 189 0 c119 0 189 4 189 10 0 6 -69 10 -186 10 -171 0 -185 1 -182 18 3 15 23 17 215 20 l211 2 11 -31 c6 -18 14 -29 17 -26 12 12 -17 71 -51 104 -19 19 -35 38 -35 44 0 5 -12 15 -27 22 -14 6 -39 24 -54 39 -31 32 -35 33 -69 13z m55 -19 c19 -14 19 -15 1 -35 -20 -22 -8 -28 23 -11 20 10 61 -12 61 -34 0 -8 9 -16 20 -19 11 -3 20 -10 20 -16 0 -8 -57 -11 -181 -11 l-180 0 3 27 c4 35 48 54 79 34 25 -15 37 -7 20 12 -16 20 11 41 42 33 16 -4 26 0 35 14 14 24 31 25 57 6z"/>
            <path d="M605 415 c-14 -13 -25 -31 -25 -39 0 -10 -33 -26 -100 -47 -94 -31 -100 -32 -118 -16 -25 22 -75 22 -95 -1 -20 -22 -22 -73 -5 -90 7 -7 13 -27 14 -44 4 -82 112 -91 133 -12 7 26 17 32 106 60 81 25 102 29 112 18 25 -24 54 -27 82 -7 31 23 40 73 17 95 -8 9 -12 24 -9 36 6 26 -37 72 -67 72 -11 0 -32 -11 -45 -25z m80 -15 c9 -10 15 -26 11 -35 -3 -9 4 -29 16 -45 20 -28 20 -30 4 -54 -20 -31 -56 -34 -80 -7 -17 19 -20 18 -129 -18 -98 -33 -112 -41 -115 -62 -5 -33 -20 -49 -48 -49 -32 0 -57 28 -51 58 3 15 -2 31 -14 43 -22 22 -24 39 -6 63 17 23 66 24 82 2 17 -22 26 -21 140 17 89 30 100 36 107 62 12 48 52 60 83 25z"/>
        </g>
    </symbol>
    <symbol id="Question" width="24" height="24" viewBox="0 0 24 24" fill="none" xmlns="http://www.w3.org/2000/svg">
        <g clip-path="url(#clip0_5514_4033__Question)">
            <path d="M12 24C18.6274 24 24 18.6274 24 12C24 5.37258 18.6274 0 12 0C5.37258 0 0 5.37258 0 12C0 18.6274 5.37258 24 12 24Z" fill="#A864D8"/>
            <path fill-rule="evenodd" clip-rule="evenodd" d="M11.946 7.5C14.402 7.5 16.392 9.49 16.392 11.946C16.392 12.853 16.121 13.696 15.655 14.399L16.5 15.242L15.242 16.5L14.399 15.655C13.696 16.121 12.853 16.392 11.946 16.392C9.491 16.392 7.5 14.402 7.5 11.946C7.5 9.491 9.49 7.5 11.946 7.5ZM11.946 9.278C10.473 9.278 9.278 10.473 9.278 11.946C9.278 13.419 10.473 14.614 11.946 14.614C12.358 14.614 12.748 14.52 13.096 14.354L12.727 13.984L13.985 12.727L14.354 13.096C14.52 12.748 14.614 12.358 14.614 11.946C14.614 10.473 13.419 9.278 11.946 9.278Z" fill="white"/>
        </g>
        <defs>
            <clipPath id="clip0_5514_4033__Question">
                <rect width="24" height="24" fill="white"/>
            </clipPath>
        </defs>
    </symbol>
    <symbol id="Recommend" xmlns="http://www.w3.org/2000/svg" width="80.000000pt" height="80.000000pt" viewBox="0 0 80.000000 80.000000" preserveAspectRatio="xMidYMid meet">
        <g transform="translate(0.000000,80.000000) scale(0.100000,-0.100000)" fill="#000000" stroke="none">
            <path d="M342 717 c-50 -19 -102 -65 -123 -111 -36 -79 -15 -184 48 -242 l27 -25 -47 -95 c-26 -52 -47 -99 -47 -104 0 -6 17 -10 38 -10 31 0 43 -6 61 -31 28 -38 34 -33 76 59 l32 67 39 -77 c21 -43 42 -78 46 -78 3 0 16 14 28 30 18 25 28 30 61 30 21 0 39 2 39 4 0 3 -20 46 -45 97 -25 51 -45 98 -45 104 0 6 12 22 26 36 105 96 73 273 -60 335 -55 26 -103 29 -154 11z m175 -43 c56 -46 75 -78 81 -132 11 -118 -68 -211 -182 -214 -54 -1 -83 8 -124 39 -89 67 -97 213 -15 289 44 41 82 55 145 51 46 -3 65 -9 95 -33z m-167 -365 c0 -5 -18 -46 -41 -90 -30 -60 -44 -79 -55 -75 -9 3 -20 6 -25 6 -5 0 11 40 36 89 38 76 47 88 65 84 11 -3 20 -9 20 -14z m200 -66 c31 -66 37 -89 28 -95 -22 -13 -32 -4 -70 68 -47 87 -48 108 -6 113 4 1 25 -38 48 -86z m-154 0 c-18 -38 -41 -86 -50 -107 l-17 -40 -20 21 -20 20 43 86 c38 78 45 87 70 87 l28 0 -34 -67z m88 -19 c40 -85 42 -96 22 -114 -13 -10 -21 0 -51 60 -33 65 -35 75 -25 101 7 16 14 29 15 29 2 0 19 -34 39 -76z"/>
            <path d="M343 644 c-96 -48 -97 -200 -2 -250 66 -34 152 -12 190 49 28 45 22 127 -12 163 -51 55 -115 68 -176 38z m127 -19 c42 -22 60 -53 60 -106 0 -53 -23 -90 -72 -115 -88 -46 -200 54 -168 151 24 74 109 107 180 70z"/>
        </g>
    </symbol>
    <symbol id="Sauce" xmlns="http://www.w3.org/2000/svg" width="80.000000pt" height="80.000000pt" viewBox="0 0 80.000000 80.000000" preserveAspectRatio="xMidYMid meet">
        <g transform="translate(0.000000,80.000000) scale(0.100000,-0.100000)" fill="#000000" stroke="none">
            <path d="M439 699 c-6 -13 -8 -38 -5 -62 5 -28 2 -47 -9 -64 -19 -28 -10 -47 9 -20 10 13 27 17 69 17 55 0 57 -1 92 -47 l35 -46 -2 -181 -3 -181 -95 -6 -95 -5 101 -2 c85 -2 103 1 108 14 3 9 6 93 6 188 l0 173 -40 56 c-36 50 -40 61 -40 115 0 68 -5 72 -75 72 -35 0 -47 -5 -56 -21z m116 -9 c3 -6 3 -19 0 -30 -5 -16 -15 -20 -56 -20 -45 0 -49 2 -49 23 0 13 3 27 7 30 10 11 91 8 98 -3z m-5 -85 c0 -11 -12 -15 -50 -15 -38 0 -50 4 -50 15 0 11 12 15 50 15 38 0 50 -4 50 -15z"/>
            <path d="M186 642 c-7 -11 -4 -156 4 -167 4 -5 -2 -75 -12 -155 -10 -80 -17 -163 -16 -185 l3 -40 118 -3 c100 -2 118 0 124 13 3 9 -1 92 -10 183 -11 118 -14 192 -8 252 6 55 5 89 -1 98 -12 13 -193 18 -202 4z m34 -37 c0 -14 5 -25 10 -25 6 0 10 11 10 25 0 14 5 25 10 25 6 0 10 -12 10 -26 0 -14 4 -23 10 -19 6 3 10 15 10 26 0 10 5 19 10 19 6 0 10 -12 10 -26 0 -14 4 -23 10 -19 6 3 10 15 10 26 0 30 20 22 21 -8 l2 -28 4 28 c3 16 11 27 20 27 12 0 14 -7 9 -31 -3 -17 -6 -38 -6 -46 0 -11 -17 -13 -82 -11 l-83 3 -3 43 c-2 25 1 42 7 42 6 0 11 -11 11 -25z m150 -100 c0 -12 -16 -15 -84 -15 -78 0 -105 7 -89 24 3 3 44 6 90 6 67 0 83 -3 83 -15z m-6 -66 c15 -76 13 -79 -60 -79 l-66 0 5 30 c4 16 2 32 -3 35 -6 4 -10 -9 -10 -29 0 -27 -4 -36 -16 -36 -12 0 -15 6 -10 23 3 12 6 37 6 55 l0 32 74 0 74 0 6 -31z m-146 -194 c-3 -52 -2 -95 2 -95 7 0 20 98 20 156 l0 34 64 0 c36 0 67 -3 70 -8 2 -4 8 -56 12 -115 l7 -107 -106 0 c-58 0 -108 3 -110 8 -4 7 7 123 18 190 3 17 11 32 17 32 7 0 9 -30 6 -95z"/>
            <path d="M457 459 c-33 -25 -29 -38 5 -15 31 22 44 20 84 -11 34 -28 34 -28 34 -110 l0 -83 -69 0 c-39 0 -73 -4 -76 -10 -4 -6 25 -10 79 -10 l86 0 0 93 c0 92 0 93 -32 124 -45 43 -77 50 -111 22z"/>
        </g>
    </symbol>
    <symbol id="Seafood" xmlns="http://www.w3.org/2000/svg" width="80.000000pt" height="80.000000pt" viewBox="0 0 80.000000 80.000000" preserveAspectRatio="xMidYMid meet">
        <g transform="translate(0.000000,80.000000) scale(0.100000,-0.100000)" fill="#000000" stroke="none">
            <path d="M422 659 c-131 -22 -290 -124 -353 -225 l-21 -34 32 -39 c55 -70 133 -133 207 -167 69 -33 206 -65 219 -52 3 4 -9 26 -27 49 l-34 42 29 21 c16 11 49 37 73 57 l44 36 37 -18 c38 -20 102 -26 102 -10 0 5 -19 26 -42 46 l-43 36 43 40 c23 22 42 42 42 44 0 11 -73 4 -106 -10 l-35 -15 -67 51 c-37 29 -69 55 -70 60 -2 5 10 27 27 48 17 21 31 42 31 45 0 7 -19 6 -88 -5z m48 -15 c0 -3 -9 -19 -21 -35 -17 -25 -23 -27 -41 -18 -16 9 -41 5 -27 -4 2 -1 29 -19 59 -38 30 -20 83 -60 118 -89 l63 -53 -43 -44 c-24 -25 -78 -68 -120 -96 -76 -49 -104 -78 -53 -55 21 9 27 8 44 -13 30 -35 26 -42 -21 -34 -106 18 -236 90 -304 168 -57 66 -57 68 -16 120 70 88 174 153 292 182 67 16 70 17 70 9z m220 -178 c0 -3 -14 -14 -31 -27 -24 -16 -33 -19 -42 -10 -9 10 -7 16 7 27 18 13 66 20 66 10z m-4 -134 c-7 -6 -76 18 -76 27 0 4 5 12 12 19 9 9 18 6 40 -15 15 -15 26 -28 24 -31z"/>
            <path d="M200 505 c0 -4 9 -18 20 -32 25 -32 25 -59 0 -100 -23 -39 -10 -44 18 -8 22 27 39 31 75 14 21 -9 28 -6 60 26 20 20 37 38 37 40 0 12 -56 12 -98 1 l-52 -13 -17 35 c-16 32 -43 55 -43 37z m154 -87 c-10 -13 -19 -24 -19 -25 -1 -1 -19 3 -40 10 l-39 12 39 12 c22 6 49 12 59 12 19 1 19 1 0 -21z"/>
            <path d="M137 444 c-12 -12 -8 -42 6 -47 21 -8 39 8 35 29 -3 19 -29 30 -41 18z m33 -18 c0 -11 -19 -15 -25 -6 -3 5 1 10 9 10 9 0 16 -2 16 -4z"/>
        </g>
    </symbol>
    <symbol id="Search" width="36" height="36" viewBox="0 0 36 36" fill="none" xmlns="http://www.w3.org/2000/svg">
        <g clip-path="url(#clip0_5514_3183__Search)">
            <path d="M26.0811 26.081L21.9611 21.961M16.4671 23.334C17.3689 23.334 18.2618 23.1564 19.095 22.8113C19.9281 22.4662 20.6851 21.9603 21.3228 21.3227C21.9605 20.685 22.4663 19.928 22.8114 19.0949C23.1565 18.2617 23.3341 17.3688 23.3341 16.467C23.3341 15.5652 23.1565 14.6722 22.8114 13.8391C22.4663 13.0059 21.9605 12.2489 21.3228 11.6113C20.6851 10.9736 19.9281 10.4678 19.095 10.1227C18.2618 9.77759 17.3689 9.59998 16.4671 9.59998C14.6459 9.59998 12.8992 10.3235 11.6114 11.6113C10.3236 12.8991 9.6001 14.6457 9.6001 16.467C9.6001 18.2882 10.3236 20.0349 11.6114 21.3227C12.8992 22.6105 14.6459 23.334 16.4671 23.334V23.334Z" stroke="#5F0080" stroke-width="1.7" stroke-linecap="round"/>
        </g>
        <defs>
            <clipPath id="clip0_5514_3183__Search">
                <rect width="36" height="36" fill="white"/>
            </clipPath>
        </defs>
    </symbol>
    <symbol id="Side" xmlns="http://www.w3.org/2000/svg" width="80.000000pt" height="80.000000pt" viewBox="0 0 80.000000 80.000000" preserveAspectRatio="xMidYMid meet">
        <g transform="translate(0.000000,80.000000) scale(0.100000,-0.100000)" fill="#000000" stroke="none">
            <path d="M255 710 c-13 -21 -8 -71 9 -89 12 -13 15 -27 11 -41 -5 -16 -3 -21 6 -18 23 7 22 45 -2 77 -21 29 -21 31 -5 55 14 22 14 26 2 26 -8 0 -18 -5 -21 -10z"/>
            <path d="M342 708 c-18 -18 -14 -57 8 -85 15 -19 17 -30 9 -44 -13 -24 6 -26 20 -2 7 12 3 28 -12 55 -19 31 -20 41 -9 58 6 11 12 22 12 25 0 9 -16 5 -28 -7z"/>
            <path d="M430 585 c0 -3 12 -10 26 -15 14 -6 28 -19 31 -30 3 -11 14 -22 25 -26 10 -3 24 -16 29 -28 6 -12 20 -26 32 -31 12 -6 23 -20 25 -32 l3 -23 -250 0 c-235 0 -251 1 -251 18 0 23 19 42 42 42 14 0 18 8 18 35 0 27 6 37 28 49 24 13 25 15 6 16 -26 0 -54 -29 -54 -57 0 -11 -10 -25 -25 -31 -16 -8 -28 -23 -31 -42 -4 -16 -11 -30 -16 -30 -10 0 -2 -60 15 -105 19 -53 56 -101 102 -134 27 -19 45 -40 45 -52 0 -18 8 -19 125 -19 l125 0 0 25 c0 14 8 29 19 35 28 14 29 13 33 -17 4 -39 40 -55 114 -51 92 5 95 11 92 137 l-3 106 -53 3 c-52 3 -53 4 -47 30 7 34 -27 108 -55 117 -11 3 -20 10 -20 15 0 18 -91 100 -110 100 -11 0 -20 -2 -20 -5z m190 -214 c0 -30 -14 -41 -51 -41 l-39 0 0 -69 c0 -68 -1 -70 -34 -90 -29 -18 -49 -21 -148 -21 l-115 0 -45 35 c-29 21 -56 54 -72 87 l-27 53 101 3 c131 4 132 22 1 22 -79 0 -100 3 -105 15 -5 13 29 15 264 15 157 0 270 -4 270 -9z m100 -156 c0 -83 -2 -96 -19 -105 -31 -16 -126 -13 -141 5 -11 13 -3 15 59 15 41 0 71 4 71 10 0 6 -30 10 -70 10 l-70 0 0 80 0 80 85 0 85 0 0 -95z m-260 -95 c0 -6 -43 -10 -110 -10 -67 0 -110 4 -110 10 0 6 43 10 110 10 67 0 110 -4 110 -10z"/>
        </g>
    </symbol>
    <symbol id="Snacks" xmlns="http://www.w3.org/2000/svg" width="80.000000pt" height="80.000000pt" viewBox="0 0 80.000000 80.000000" preserveAspectRatio="xMidYMid meet">
        <g transform="translate(0.000000,80.000000) scale(0.100000,-0.100000)" fill="#000000" stroke="none">
            <path d="M420 675 c0 -38 -3 -45 -20 -45 -22 0 -45 -34 -34 -52 5 -7 10 -4 15 10 8 21 15 22 114 22 l105 0 0 -40 c0 -44 -13 -53 -25 -17 l-8 22 -4 -22 c-4 -21 -10 -23 -64 -23 -33 0 -59 -4 -59 -10 0 -6 27 -10 60 -10 l60 0 0 -130 c0 -80 4 -130 10 -130 6 0 10 50 10 130 0 80 4 130 10 130 6 0 10 -73 10 -200 l0 -200 -69 0 c-39 0 -73 -4 -76 -10 -7 -11 122 -14 149 -4 14 5 16 38 16 265 l0 259 -24 6 c-21 5 -25 13 -28 47 l-3 42 -72 3 -73 3 0 -46z m130 -10 l0 -35 -55 0 -55 0 0 35 0 35 55 0 55 0 0 -35z"/>
            <path d="M190 535 c-7 -8 -9 -22 -6 -31 4 -9 1 -24 -6 -33 -10 -12 -12 -62 -10 -199 l3 -182 129 0 129 0 3 182 c2 111 -1 189 -7 197 -5 8 -9 23 -7 33 7 39 -15 48 -118 48 -74 0 -101 -4 -110 -15z m210 -20 c0 -12 -18 -15 -100 -15 -82 0 -100 3 -100 15 0 12 18 15 100 15 82 0 100 -3 100 -15z m4 -54 c23 -25 7 -33 -33 -18 -25 9 -36 9 -52 -2 -15 -9 -24 -10 -32 -2 -14 14 -50 14 -64 0 -7 -7 -19 -9 -29 -5 -16 6 -16 8 1 26 15 17 31 20 105 20 73 0 90 -3 104 -19z m-80 -37 c23 14 27 14 55 -2 l31 -17 0 -147 0 -148 -110 0 -110 0 0 148 0 148 33 16 c28 13 35 13 55 0 19 -13 25 -12 46 2z"/>
            <path d="M247 340 c-23 -25 -27 -39 -27 -89 l0 -59 40 -4 c22 -2 58 -2 80 0 l40 4 0 59 c0 50 -4 64 -27 89 -17 19 -36 30 -53 30 -17 0 -36 -11 -53 -30z m97 -15 c9 -14 16 -45 16 -75 l0 -50 -60 0 -60 0 0 52 c0 39 5 57 22 75 28 30 62 29 82 -2z"/>
        </g>
    </symbol>
    <symbol id="Time" width="36" height="36" viewBox="0 0 36 36" fill="none" xmlns="http://www.w3.org/2000/svg">
        <path d="M32 18C32 25.732 25.732 32 18 32C10.268 32 4 25.732 4 18C4 10.268 10.268 4 18 4C25.732 4 32 10.268 32 18Z" fill="#BD76FF"/>
        <path d="M18 12.0439V18.0439" stroke="white" stroke-width="2" stroke-linecap="round" stroke-linejoin="round"/>
        <path d="M13.6568 22.2802L17.9609 18.1" stroke="white" stroke-width="2" stroke-linecap="round" stroke-linejoin="round"/>
    </symbol>
    <symbol id="Type=Frozen" width="30" height="30" viewBox="0 0 30 30" fill="none" xmlns="http://www.w3.org/2000/svg">
        <g clip-path="url(#clip0_5514_4117__Type=Frozen)">
            <path d="M15.044 4C15.2254 3.99977 15.4008 4.06529 15.5376 4.18444C15.6744 4.30359 15.7633 4.46828 15.788 4.648L15.794 4.75V7.439L17.514 5.719C17.6412 5.59187 17.8098 5.51466 17.9891 5.50145C18.1685 5.48823 18.3466 5.53989 18.491 5.647L18.575 5.72C18.7019 5.84711 18.7789 6.01553 18.7921 6.19464C18.8053 6.37374 18.7538 6.55165 18.647 6.696L18.575 6.78L15.795 9.56L15.794 13.95L19.596 11.756L20.614 7.958C20.6625 7.77457 20.7787 7.61633 20.9392 7.51515C21.0997 7.41398 21.2926 7.3774 21.479 7.41278C21.6654 7.44816 21.8314 7.55287 21.9437 7.70581C22.056 7.85875 22.1061 8.04856 22.084 8.237L22.064 8.346L21.434 10.696L23.763 9.35C23.9277 9.25429 24.1227 9.22487 24.3084 9.2677C24.494 9.31054 24.6564 9.42242 24.7626 9.58063C24.8687 9.73884 24.9107 9.93152 24.8799 10.1195C24.8492 10.3076 24.748 10.4768 24.597 10.593L24.513 10.65L22.185 11.994L24.533 12.624C24.7063 12.6707 24.8571 12.778 24.9581 12.9265C25.059 13.0749 25.1033 13.2547 25.083 13.433L25.063 13.543C25.0163 13.7165 24.9088 13.8675 24.7601 13.9684C24.6115 14.0693 24.4315 14.1136 24.253 14.093L24.145 14.073L20.347 13.055L16.544 15.249L20.346 17.445L24.145 16.427C24.3283 16.3767 24.5239 16.3979 24.6922 16.4863C24.8605 16.5747 24.9889 16.7237 25.0515 16.9032C25.1142 17.0827 25.1063 17.2793 25.0295 17.4532C24.9528 17.6271 24.8128 17.7653 24.638 17.84L24.533 17.876L22.183 18.506L24.513 19.85C24.6783 19.9448 24.8013 20.0989 24.8571 20.281C24.9129 20.4632 24.8973 20.6598 24.8134 20.8309C24.7295 21.0019 24.5837 21.1347 24.4055 21.2021C24.2273 21.2696 24.0301 21.2667 23.854 21.194L23.763 21.15L21.435 19.806L22.063 22.154C22.1096 22.3275 22.0923 22.512 22.0143 22.6739C21.9363 22.8358 21.8028 22.9643 21.638 23.036L21.533 23.073C21.3593 23.1195 21.1747 23.1021 21.0129 23.0239C20.851 22.9457 20.7226 22.8119 20.651 22.647L20.614 22.542L19.597 18.745L15.794 16.548V20.939L18.574 23.719C18.7085 23.8527 18.7875 24.0323 18.7948 24.2218C18.8022 24.4113 18.7376 24.5966 18.6139 24.7403C18.4902 24.8841 18.3166 24.9756 18.1281 24.9965C17.9396 25.0174 17.7502 24.9661 17.598 24.853L17.514 24.78L15.794 23.06V25.75C15.7939 25.94 15.7218 26.1229 15.592 26.2618C15.4623 26.4006 15.2847 26.4851 15.0951 26.498C14.9055 26.511 14.7181 26.4515 14.5707 26.3316C14.4233 26.2117 14.3269 26.0402 14.301 25.852L14.294 25.75V23.062L12.574 24.78C12.447 24.907 12.2787 24.9842 12.0996 24.9976C11.9204 25.011 11.7425 24.9597 11.598 24.853L11.514 24.78C11.387 24.653 11.3098 24.4847 11.2964 24.3055C11.283 24.1264 11.3343 23.9485 11.441 23.804L11.514 23.72L14.294 20.94V16.549L10.493 18.744L9.475 22.542C9.42653 22.7254 9.31033 22.8837 9.14983 22.9848C8.98933 23.086 8.79645 23.1226 8.61005 23.0872C8.42365 23.0518 8.25758 22.9471 8.14531 22.7942C8.03303 22.6412 7.9829 22.4514 8.005 22.263L8.025 22.154L8.655 19.804L6.326 21.15C6.16123 21.2472 5.96554 21.2777 5.77898 21.2354C5.59242 21.193 5.42909 21.081 5.32242 20.9222C5.21574 20.7634 5.17378 20.5698 5.20512 20.3811C5.23646 20.1924 5.33873 20.0228 5.491 19.907L5.576 19.85L7.904 18.506L5.556 17.876C5.3825 17.8295 5.23146 17.7222 5.13034 17.5738C5.02922 17.4253 4.98475 17.2455 5.005 17.067L5.025 16.957C5.07174 16.7835 5.17922 16.6325 5.32788 16.5316C5.47654 16.4307 5.65649 16.3864 5.835 16.407L5.945 16.427L9.742 17.445L13.544 15.25L9.743 13.055L5.944 14.073C5.76068 14.1233 5.5651 14.1021 5.39682 14.0137C5.22853 13.9253 5.10009 13.7763 5.03747 13.5968C4.97485 13.4173 4.98272 13.2207 5.05948 13.0468C5.13625 12.8729 5.27619 12.7347 5.451 12.66L5.556 12.624L7.906 11.994L5.576 10.65C5.41071 10.5552 5.28767 10.4011 5.23187 10.219C5.17608 10.0368 5.1917 9.8402 5.27558 9.66913C5.35946 9.49806 5.50531 9.36533 5.6835 9.29789C5.86169 9.23044 6.05887 9.23334 6.235 9.306L6.326 9.35L8.654 10.694L8.026 8.346C7.97944 8.17245 7.99673 7.98796 8.07473 7.82609C8.15273 7.66422 8.28626 7.53573 8.451 7.464L8.556 7.427C8.72967 7.38051 8.91426 7.39794 9.07615 7.47614C9.23804 7.55433 9.36645 7.68807 9.438 7.853L9.475 7.958L10.492 11.755L14.294 13.951V9.561L11.514 6.781C11.3781 6.64756 11.298 6.4674 11.2901 6.2771C11.2822 6.0868 11.3469 5.9006 11.4713 5.7563C11.5956 5.612 11.7701 5.5204 11.9595 5.50011C12.1489 5.47981 12.3389 5.53233 12.491 5.647L12.575 5.72L14.295 7.439V4.75C14.295 4.55109 14.374 4.36032 14.5147 4.21967C14.6553 4.07902 14.8461 4 15.045 4H15.044Z" fill="#6FAFF3"/>
        </g>
        <defs>
            <clipPath id="clip0_5514_4117__Type=Frozen">
                <rect width="30" height="30" fill="white"/>
            </clipPath>
        </defs>
    </symbol>
    <symbol id="Type=Refrigerated" width="30" height="30" viewBox="0 0 30 30" fill="none" xmlns="http://www.w3.org/2000/svg">
        <g clip-path="url(#clip0_5514_4121__Type=Refrigerated)">
            <path fill-rule="evenodd" clip-rule="evenodd" d="M14.627 25.255C16.6496 25.2547 18.5893 24.4511 20.0195 23.0208C21.4496 21.5904 22.253 19.6506 22.253 17.628C22.253 14.82 19.711 10.444 14.627 4.5C9.542 10.444 7 14.82 7 17.628C7 19.6508 7.80356 21.5908 9.2339 23.0211C10.6642 24.4514 12.6042 25.255 14.627 25.255V25.255Z" stroke="#5EC49E" stroke-width="1.5" stroke-linejoin="round"/>
            <path d="M14.627 20.66C15.1277 20.66 15.6235 20.5614 16.0861 20.3698C16.5487 20.1782 16.9691 19.8973 17.3232 19.5432C17.6772 19.1892 17.9581 18.7688 18.1497 18.3062C18.3413 17.8436 18.44 17.3478 18.44 16.847" stroke="#5EC49E" stroke-width="1.5" stroke-linecap="round"/>
        </g>
        <defs>
            <clipPath id="clip0_5514_4121__Type=Refrigerated">
                <rect width="30" height="30" fill="white"/>
            </clipPath>
        </defs>
    </symbol>
    <symbol id="Type=_Normal" width="30" height="30" viewBox="0 0 30 30" fill="none" xmlns="http://www.w3.org/2000/svg">
        <g clip-path="url(#clip0_5514_4127__Type=_Normal)">
            <path d="M15 21C18.3137 21 21 18.3137 21 15C21 11.6863 18.3137 9 15 9C11.6863 9 9 11.6863 9 15C9 18.3137 11.6863 21 15 21Z" stroke="#FF9B5C" stroke-width="1.5"/>
            <path d="M15 4V6M22.778 7.222L21.364 8.636M26 15H24M22.778 22.778L21.364 21.364M15 26V24M7.222 22.778L8.636 21.364M4 15H6M7.222 7.222L8.636 8.636" stroke="#FF9B5C" stroke-width="1.5" stroke-linecap="round"/>
        </g>
        <defs>
            <clipPath id="clip0_5514_4127__Type=_Normal">
                <rect width="30" height="30" fill="white"/>
            </clipPath>
        </defs>
    </symbol>
    <symbol id="Veggies" xmlns="http://www.w3.org/2000/svg" width="80.000000pt" height="80.000000pt" viewBox="0 0 80.000000 80.000000" preserveAspectRatio="xMidYMid meet">
        <g transform="translate(0.000000,80.000000) scale(0.100000,-0.100000)" fill="#000000" stroke="none">
            <path d="M362 734 c-12 -8 -22 -22 -22 -30 0 -9 -11 -14 -34 -14 -66 0 -86 -54 -41 -108 33 -39 32 -46 -10 -61 -49 -17 -103 -84 -111 -137 -11 -76 12 -141 70 -199 57 -57 151 -115 186 -115 28 0 112 47 168 95 62 54 86 106 87 187 0 59 -3 70 -31 105 -16 21 -49 47 -72 58 -23 11 -41 24 -42 28 0 5 11 23 25 41 25 33 31 61 17 82 -10 16 -50 35 -65 32 -6 -1 -24 10 -39 25 -31 31 -54 34 -86 11z m73 -20 c8 -9 14 -24 11 -33 -3 -9 -12 -42 -21 -74 -9 -32 -22 -56 -27 -55 -9 3 -46 113 -48 140 0 13 32 38 50 38 10 0 26 -7 35 -16z m93 -46 c19 -19 14 -46 -14 -84 -19 -25 -34 -34 -55 -34 -16 0 -29 3 -29 8 0 22 32 107 43 114 18 11 41 10 55 -4z m-176 -53 c22 -66 22 -65 -11 -65 -45 0 -101 86 -74 114 4 4 21 6 38 4 26 -3 32 -9 47 -53z m183 -110 c53 -26 90 -65 101 -109 l6 -26 -96 0 c-57 0 -96 -4 -96 -10 0 -6 39 -10 96 -10 l95 0 -3 -27 c-3 -27 -6 -28 -60 -31 -71 -4 -77 -22 -8 -22 28 0 50 -3 50 -6 0 -44 -165 -174 -220 -174 -39 0 -170 89 -205 139 -37 54 -45 150 -17 201 54 99 230 136 357 75z"/>
        </g>
    </symbol>
</svg>