<svg width="0" height="0" fill="none" style="visibility: hidden; position: absolute;" aria-hidden="true">
    <symbol id="Disabled=false-1" width="30" height="30" viewBox="0 0 30 30" fill="none" xmlns="http://www.w3.org/2000/svg">
        <path d="M16 10V14H20V16H16V20H14V16H10V14H14V10H16Z" fill="#333333"/>
    </symbol>
    <symbol id="Disabled=false-2" width="56" height="56" viewBox="0 0 56 56" fill="none" xmlns="http://www.w3.org/2000/svg">
        <rect x="0.5" y="0.5" width="55" height="55" rx="3.5" stroke="#E1E1E1"/>
        <path fill-rule="evenodd" clip-rule="evenodd" d="M38.9269 18.8929C38.3269 18.2926 37.6146 17.8164 36.8305 17.4914C36.0465 17.1665 35.2061 16.9993 34.3574 16.9993C33.5086 16.9993 32.6682 17.1665 31.8842 17.4914C31.1001 17.8164 30.3878 18.2926 29.7879 18.8929L27.9589 20.7209L26.1319 18.8929C24.9201 17.6809 23.2765 16.9999 21.5626 16.9997C19.8487 16.9995 18.2049 17.6802 16.9929 18.8919C15.7808 20.1037 15.0998 21.7473 15.0996 23.4612C15.0994 25.1751 15.7801 26.8189 16.9919 28.0309L18.8199 29.8599L27.2519 38.2939C27.4394 38.4814 27.6937 38.5867 27.9589 38.5867C28.224 38.5867 28.4783 38.4814 28.6659 38.2939L37.0989 29.8599L38.9269 28.0319C39.5271 27.432 40.0032 26.7198 40.328 25.9358C40.6528 25.1518 40.82 24.3115 40.82 23.4629C40.82 22.6144 40.6528 21.7741 40.328 20.9901C40.0032 20.2061 39.5271 19.4939 38.9269 18.8939V18.8929Z" stroke="#5F0080" stroke-width="1.7" stroke-linecap="round"/>
    </symbol>
    <symbol id="Disabled=false" width="30" height="30" viewBox="0 0 30 30" fill="none" xmlns="http://www.w3.org/2000/svg">
        <path d="M20 14V16H10V14H20Z" fill="#333333"/>
    </symbol>
    <symbol id="Disabled=true-1" width="30" height="30" viewBox="0 0 30 30" fill="none" xmlns="http://www.w3.org/2000/svg">
        <path d="M16 10V14H20V16H16V20H14V16H10V14H14V10H16Z" fill="#A6A6A6"/>
    </symbol>
    <symbol id="Disabled=true-2" width="56" height="56" viewBox="0 0 56 56" fill="none" xmlns="http://www.w3.org/2000/svg">
        <rect x="0.5" y="0.5" width="55" height="55" rx="3.5" stroke="#E1E1E1"/>
        <path fill-rule="evenodd" clip-rule="evenodd" d="M38.9269 18.8929C38.3269 18.2926 37.6146 17.8164 36.8305 17.4914C36.0465 17.1665 35.2061 16.9993 34.3574 16.9993C33.5086 16.9993 32.6682 17.1665 31.8842 17.4914C31.1001 17.8164 30.3878 18.2926 29.7879 18.8929L27.9589 20.7209L26.1319 18.8929C24.9201 17.6809 23.2765 16.9999 21.5626 16.9997C19.8487 16.9995 18.2049 17.6802 16.9929 18.8919C15.7808 20.1037 15.0998 21.7473 15.0996 23.4612C15.0994 25.1751 15.7801 26.8189 16.9919 28.0309L18.8199 29.8599L27.2519 38.2939C27.4394 38.4814 27.6937 38.5867 27.9589 38.5867C28.224 38.5867 28.4783 38.4814 28.6659 38.2939L37.0989 29.8599L38.9269 28.0319C39.5271 27.432 40.0032 26.7198 40.328 25.9358C40.6528 25.1518 40.82 24.3115 40.82 23.4629C40.82 22.6144 40.6528 21.7741 40.328 20.9901C40.0032 20.2061 39.5271 19.4939 38.9269 18.8939V18.8929Z" stroke="#E1E1E1" stroke-width="1.7" stroke-linecap="round"/>
    </symbol>
    <symbol id="Disabled=true" width="30" height="30" viewBox="0 0 30 30" fill="none" xmlns="http://www.w3.org/2000/svg">
        <path d="M20 14V16H10V14H20Z" fill="#A6A6A6"/>
    </symbol>
    <symbol id="isChecked=false" width="24" height="24" viewBox="0 0 24 24" fill="none" xmlns="http://www.w3.org/2000/svg">
        <g clip-path="url(#clip0_5514_3294__isChecked=false)">
            <path d="M12 23.5C18.3513 23.5 23.5 18.3513 23.5 12C23.5 5.64873 18.3513 0.5 12 0.5C5.64873 0.5 0.5 5.64873 0.5 12C0.5 18.3513 5.64873 23.5 12 23.5Z" stroke="#C4C4C4"/>
            <path d="M7 12.667L10.385 16L18 8.5" stroke="#C4C4C4" stroke-width="1.5" stroke-linecap="round" stroke-linejoin="round"/>
        </g>
        <defs>
            <clipPath id="clip0_5514_3294__isChecked=false">
                <rect width="24" height="24" fill="white"/>
            </clipPath>
        </defs>
    </symbol>
    <symbol id="isChecked=true" width="24" height="24" viewBox="0 0 24 24" fill="none" xmlns="http://www.w3.org/2000/svg">
        <g clip-path="url(#clip0_5514_3302__isChecked=true)">
            <path d="M12 23.5C18.3513 23.5 23.5 18.3513 23.5 12C23.5 5.64873 18.3513 0.5 12 0.5C5.64873 0.5 0.5 5.64873 0.5 12C0.5 18.3513 5.64873 23.5 12 23.5Z" fill="#5F0080"/>
            <path d="M7 12.667L10.385 16L18 8.5" stroke="#C4C4C4" stroke-width="1.5" stroke-linecap="round" stroke-linejoin="round"/>
        </g>
        <defs>
            <clipPath id="clip0_5514_3302__isChecked=true">
                <rect width="24" height="24" fill="white"/>
            </clipPath>
        </defs>
    </symbol>
    <symbol id="isSelected=false" width="24" height="24" viewBox="0 0 24 24" fill="none" xmlns="http://www.w3.org/2000/svg">
        <circle cx="12" cy="12" r="11.5" stroke="#C4C4C4"/>
    </symbol>
    <symbol id="isSelected=true" width="24" height="24" viewBox="0 0 24 24" fill="none" xmlns="http://www.w3.org/2000/svg">
        <circle cx="12" cy="12" r="12" fill="#5F0080"/>
        <circle cx="12" cy="12" r="5" fill="#C4C4C4"/>
    </symbol>
</svg>